<svg width="82" height="82" viewBox="0 0 82 82" fill="none" xmlns="http://www.w3.org/2000/svg">
<rect width="82" height="82" rx="8" fill="white"/>
<path d="M45.9375 33.9405L42.225 37.653C42.1251 37.7438 42.0062 37.8111 41.877 37.85C41.7478 37.8889 41.6115 37.8985 41.4781 37.878L33.075 35.928L32.8125 36.1905L38.9625 39.4155C39.0704 39.4703 39.1638 39.5499 39.235 39.6478C39.3062 39.7457 39.3532 39.859 39.3721 39.9786C39.391 40.0981 39.3813 40.2204 39.3438 40.3355C39.3062 40.4506 39.242 40.5551 39.1562 40.6405L39.1406 40.6562L35.4 44.3968L35.3844 44.4124C35.3003 44.4963 35.1976 44.559 35.0846 44.5954C34.9716 44.6318 34.8516 44.6408 34.7344 44.6218L32.8187 44.3593L34.9187 45.5593C35.0512 45.622 35.1574 45.7293 35.2188 45.8624L35.2156 45.8593L36.3813 47.9249L36.1125 46.0062C36.0919 45.8875 36.1002 45.7657 36.1366 45.6509C36.1731 45.5361 36.2366 45.4318 36.3219 45.3468L36.3375 45.3312L40.0469 41.6218L40.0625 41.6062C40.1472 41.5214 40.251 41.4581 40.3652 41.4217C40.4793 41.3852 40.6006 41.3767 40.7188 41.3968H40.7219C40.8456 41.4062 40.9642 41.4506 41.0637 41.5247C41.1633 41.5988 41.2398 41.6997 41.2844 41.8155L41.2813 41.8124L44.5125 47.9687L44.775 47.7061L42.8187 39.2999C42.7983 39.1665 42.8079 39.0302 42.8468 38.901C42.8857 38.7718 42.953 38.6529 43.0438 38.553L46.7563 34.8405C46.8636 34.7167 46.9233 34.5587 46.9244 34.3948C46.9256 34.2309 46.8681 34.072 46.7625 33.9468C46.625 33.728 46.1625 33.7218 45.9375 33.9468V33.9405Z" fill="#1E1E1E"/>
<path d="M46.4623 6.79065L42.1123 11.1406C42.423 11.4513 42.6694 11.8201 42.8375 12.226C43.0057 12.6319 43.0922 13.0669 43.0922 13.5063C43.0922 13.9456 43.0057 14.3806 42.8375 14.7865C42.6694 15.1924 42.423 15.5612 42.1123 15.8719C41.8017 16.1826 41.4329 16.429 41.027 16.5971C40.6211 16.7652 40.186 16.8518 39.7467 16.8518C38.8594 16.8518 38.0085 16.4993 37.3811 15.8719L6.78733 46.4656L6.77795 46.475C5.77705 47.477 5.21484 48.8353 5.21484 50.2516C5.21484 51.6678 5.77705 53.0262 6.77795 54.0282L6.79045 54.0406L26.9655 74.2156L26.9748 74.225C27.9768 75.2259 29.3351 75.7881 30.7514 75.7881C32.1676 75.7881 33.526 75.2259 34.5279 74.225L34.5404 74.2125L65.1342 43.6188C64.5995 42.9734 64.3228 42.1529 64.3575 41.3156C64.3921 40.4783 64.7356 39.6834 65.3217 39.0844C65.9141 38.4903 66.7082 38.1406 67.5464 38.1047C68.3846 38.0689 69.2057 38.3494 69.8467 38.8906L69.8561 38.9L74.2061 34.55L74.2154 34.5406C75.2163 33.5387 75.7786 32.1803 75.7786 30.7641C75.7786 29.3478 75.2163 27.9895 74.2154 26.9875L74.2029 26.975L54.0279 6.80002L54.0186 6.79065C53.0166 5.78975 51.6583 5.22754 50.242 5.22754C48.8258 5.22754 47.4674 5.78975 46.4654 6.79065L46.4592 6.7969L46.4623 6.79065ZM24.0748 43.575L30.0748 37.575C30.1226 37.5202 30.181 37.4757 30.2466 37.4444C30.3122 37.4131 30.3836 37.3956 30.4562 37.393C30.5289 37.3903 30.6013 37.4026 30.669 37.4291C30.7367 37.4556 30.7982 37.4957 30.8498 37.5469C30.901 37.5985 30.9411 37.66 30.9676 37.7277C30.9941 37.7954 31.0064 37.8678 31.0038 37.9405C31.0011 38.0131 30.9836 38.0845 30.9523 38.1501C30.921 38.2157 30.8765 38.2742 30.8217 38.3219L24.8217 44.3219L24.7998 44.3438C24.7534 44.3905 24.6981 44.4277 24.6372 44.453C24.5764 44.4783 24.5111 44.4914 24.4451 44.4914C24.3792 44.4914 24.3139 44.4783 24.2531 44.453C24.1922 44.4277 24.1369 44.3905 24.0905 44.3438L24.0686 44.3188C23.9698 44.2188 23.9146 44.0837 23.9152 43.9431C23.9158 43.8026 23.9721 43.6679 24.0717 43.5688L24.0748 43.575ZM32.5123 39.0375C32.5601 38.9827 32.6185 38.9383 32.6841 38.9069C32.7497 38.8756 32.8211 38.8581 32.8937 38.8555C32.9664 38.8528 33.0388 38.8651 33.1065 38.8916C33.1742 38.9181 33.2357 38.9582 33.2873 39.0094C33.3385 39.061 33.3786 39.1225 33.4051 39.1902C33.4316 39.2579 33.4439 39.3303 33.4413 39.403C33.4386 39.4756 33.4211 39.547 33.3898 39.6126C33.3585 39.6782 33.314 39.7367 33.2592 39.7844L30.0686 42.975C30.0208 43.0299 29.9624 43.0743 29.8968 43.1056C29.8312 43.1369 29.7598 43.1544 29.6872 43.1571C29.6145 43.1597 29.5421 43.1474 29.4744 43.1209C29.4067 43.0945 29.3452 43.0544 29.2936 43.0031C29.2423 42.9516 29.2023 42.89 29.1758 42.8223C29.1493 42.7546 29.137 42.6822 29.1396 42.6096C29.1423 42.5369 29.1598 42.4656 29.1911 42.4C29.2224 42.3344 29.2669 42.2759 29.3217 42.2281L32.5123 39.0375ZM27.1405 63.7594C27.4498 64.0688 27.4498 64.575 27.1405 64.8844C26.8311 65.1938 26.3248 65.1938 26.0154 64.8844L16.1155 54.9844C15.8061 54.675 15.8061 54.1688 16.1155 53.8594C16.4248 53.55 16.9311 53.55 17.2405 53.8594L27.1405 63.7594ZM27.3279 59.6719C27.6373 59.9813 27.6373 60.4875 27.3279 60.7969C27.0186 61.1063 26.5123 61.1063 26.2029 60.7969L20.203 54.7969C19.8936 54.4875 19.8936 53.9813 20.203 53.6719C20.5123 53.3625 21.0186 53.3625 21.3279 53.6719L27.3279 59.6719ZM43.1467 50.6782L37.1623 56.6625C37.1146 56.7174 37.0561 56.7618 36.9905 56.7931C36.9249 56.8244 36.8536 56.8419 36.7809 56.8446C36.7083 56.8472 36.6359 56.8349 36.5682 56.8084C36.5005 56.782 36.4389 56.7419 36.3873 56.6906C36.3361 56.6391 36.296 56.5775 36.2695 56.5098C36.2431 56.4421 36.2308 56.3697 36.2334 56.2971C36.236 56.2244 36.2535 56.1531 36.2849 56.0875C36.3162 56.0219 36.3606 55.9634 36.4154 55.9156L42.4154 49.9156L42.4373 49.8938C42.4838 49.847 42.5391 49.8099 42.5999 49.7846C42.6608 49.7592 42.7261 49.7462 42.792 49.7462C42.8579 49.7462 42.9232 49.7592 42.9841 49.7846C43.045 49.8099 43.1002 49.847 43.1467 49.8938L43.1686 49.9188C43.26 50.0217 43.3104 50.1546 43.3104 50.2922C43.3104 50.4299 43.26 50.5627 43.1686 50.6656L43.1467 50.6782ZM38.3623 51.3375C38.2611 51.4275 38.1292 51.4754 37.9938 51.4714C37.8584 51.4675 37.7296 51.4119 37.6338 51.3161C37.538 51.2203 37.4824 51.0915 37.4784 50.9561C37.4744 50.8206 37.5223 50.6888 37.6123 50.5875L40.8029 47.3969C40.9042 47.3069 41.0361 47.259 41.1715 47.263C41.3069 47.267 41.4357 47.3225 41.5315 47.4183C41.6273 47.5141 41.6829 47.6429 41.6869 47.7784C41.6909 47.9138 41.6429 48.0456 41.5529 48.1469L38.3623 51.3375ZM47.9998 36.0031L44.5873 39.4156L46.5373 47.8156C46.5578 47.949 46.5482 48.0853 46.5093 48.2145C46.4704 48.3438 46.4031 48.4626 46.3123 48.5625L44.9623 49.9125L44.9467 49.9282C44.862 50.0129 44.7582 50.0762 44.644 50.1126C44.5299 50.1491 44.4086 50.1576 44.2904 50.1375H44.2873C44.1636 50.1281 44.045 50.0837 43.9454 50.0096C43.8459 49.9355 43.7694 49.8346 43.7248 49.7188L43.7279 49.7219L40.5092 43.5781L37.8092 46.2781L38.0717 48.2656C38.0923 48.3843 38.084 48.5061 38.0476 48.6209C38.0111 48.7357 37.9476 48.84 37.8623 48.925L37.8467 48.9407L36.8342 49.9531L36.8186 49.9688C36.7339 50.0536 36.6301 50.1168 36.5159 50.1533C36.4017 50.1897 36.2805 50.1982 36.1623 50.1782H36.1592C36.0354 50.1687 35.9169 50.1243 35.8173 50.0502C35.7178 49.9761 35.6413 49.8753 35.5967 49.7594L35.5998 49.7625L34.0248 46.9125L31.1686 45.3313C30.9662 45.1991 30.8186 44.9982 30.7529 44.7656L30.7561 44.7719C30.7355 44.6533 30.7437 44.5314 30.7802 44.4166C30.8166 44.3019 30.8802 44.1976 30.9655 44.1125L30.9811 44.0969L31.9936 43.0844L32.0092 43.0688C32.0939 42.984 32.1977 42.9207 32.3119 42.8843C32.426 42.8479 32.5473 42.8393 32.6654 42.8594H32.6686L34.6561 43.1219L37.3561 40.4219L31.1311 37.1219C31.0232 37.0671 30.9298 36.9875 30.8586 36.8896C30.7874 36.7918 30.7404 36.6784 30.7215 36.5589C30.7026 36.4393 30.7123 36.317 30.7498 36.2019C30.7873 36.0869 30.8516 35.9823 30.9373 35.8969L30.9529 35.8813L32.2998 34.5344C32.3997 34.4437 32.5186 34.3764 32.6478 34.3374C32.777 34.2985 32.9133 34.2889 33.0467 34.3094H33.0498L41.4498 36.2594L44.8623 32.8469C45.2817 32.4324 45.8476 32.1999 46.4373 32.1999C47.027 32.1999 47.5929 32.4324 48.0123 32.8469C48.4166 33.273 48.6409 33.8386 48.6385 34.426C48.6362 35.0133 48.4074 35.5802 47.9998 36.0031ZM62.3998 34.5781C62.7092 34.8875 62.7092 35.3938 62.3998 35.7031C62.0904 36.0125 61.5842 36.0125 61.2748 35.7031L60.8998 35.3281C60.5904 35.0188 60.5904 34.5125 60.8998 34.2031C61.2092 33.8938 61.7154 33.8938 62.0248 34.2031L62.3998 34.5781ZM59.7748 31.9531C60.0842 32.2625 60.0842 32.7688 59.7748 33.0781C59.4654 33.3875 58.9592 33.3875 58.6498 33.0781L58.2748 32.7031C57.9654 32.3938 57.9654 31.8875 58.2748 31.5781C58.5842 31.2688 59.0904 31.2688 59.3998 31.5781L59.7748 31.9531ZM57.1498 29.3281C57.4592 29.6375 57.4592 30.1438 57.1498 30.4531C56.8404 30.7625 56.3342 30.7625 56.0248 30.4531L55.6467 30.075C55.3373 29.7656 55.3373 29.2594 55.6467 28.95C55.9561 28.6406 56.4623 28.6406 56.7717 28.95L57.1498 29.3281ZM54.5279 26.7031C54.8373 27.0125 54.8373 27.5188 54.5279 27.8281C54.2186 28.1375 53.7123 28.1375 53.4029 27.8281L53.0248 27.45C52.7154 27.1406 52.7154 26.6344 53.0248 26.325C53.3342 26.0156 53.8404 26.0156 54.1498 26.325L54.5279 26.7031ZM51.9029 24.0781C52.2123 24.3875 52.2123 24.8938 51.9029 25.2031C51.5936 25.5125 51.0873 25.5125 50.7779 25.2031L50.3998 24.825C50.0904 24.5156 50.0904 24.0094 50.3998 23.7C50.7092 23.3906 51.2154 23.3906 51.5248 23.7L51.9029 24.0781ZM49.2779 21.4531C49.5873 21.7625 49.5873 22.2688 49.2779 22.5781C48.9686 22.8875 48.4623 22.8875 48.1529 22.5781L47.7748 22.2C47.4654 21.8906 47.4654 21.3844 47.7748 21.075C48.0842 20.7656 48.5904 20.7656 48.8998 21.075L49.2779 21.4531ZM46.6529 18.8281C46.9623 19.1375 46.9623 19.6438 46.6529 19.9531C46.3436 20.2625 45.8373 20.2625 45.5279 19.9531L45.1498 19.575C44.8404 19.2656 44.8404 18.7594 45.1498 18.45C45.4592 18.1406 45.9654 18.1406 46.2748 18.45L46.6529 18.8281ZM49.2779 15.7563L51.8279 13.2063L50.9248 12.3031L51.5248 11.7031L54.0373 14.2156L53.4373 14.8156L52.5373 13.9156L49.9873 16.4656L49.2779 15.7563ZM51.7904 18.2688L54.9404 15.1188L55.6498 15.8281L52.4998 18.9781L51.7904 18.2688ZM69.2936 29.4719L68.6936 30.0719L67.7936 29.1719L65.2467 31.7188L64.5373 31.0094L67.0873 28.4594L66.1873 27.5594L66.7873 26.9594L69.2936 29.4719ZM65.9936 26.175L65.4311 26.7375L64.0498 25.3563L63.3748 26.0313L64.6154 27.2719L64.0529 27.8344L62.8123 26.5938L62.0623 27.3438L63.4811 28.7625L62.9186 29.325L60.7904 27.1969L63.9404 24.0469L66.0404 26.1469L65.9936 26.175ZM61.1186 21.2969L59.6998 22.7156L62.1279 22.3094L62.9154 23.0969L60.6279 23.4344L59.9154 26.3969L59.1311 25.6125L59.6561 23.5875L58.7123 23.7063L57.9248 24.4938L57.2154 23.7844L60.3654 20.6344L61.0748 21.3438L61.1186 21.2969ZM58.8311 20.3594L57.9311 20.0594C57.9878 19.8645 57.9907 19.6579 57.9395 19.4615C57.8884 19.2651 57.785 19.0862 57.6404 18.9438L57.6342 18.9375C57.1842 18.4875 56.4717 18.4469 55.7967 19.125C55.1217 19.8031 55.1592 20.5125 55.6092 20.9625L55.6154 20.9688C55.7573 21.1122 55.9351 21.2149 56.1303 21.2661C56.3255 21.3172 56.5308 21.3149 56.7248 21.2594L56.7311 21.2563L57.0311 22.1563C56.679 22.2389 56.3117 22.2303 55.9639 22.1313C55.6161 22.0323 55.2994 21.8462 55.0436 21.5906L54.9654 21.5094L54.9686 21.5125L54.9217 21.4688C54.725 21.2723 54.5689 21.0389 54.4624 20.7821C54.3559 20.5253 54.3011 20.2499 54.3011 19.9719C54.3011 19.6939 54.3559 19.4185 54.4624 19.1617C54.5689 18.9049 54.725 18.6715 54.9217 18.475L55.0467 18.3594L55.0404 18.3656C55.2264 18.1421 55.4569 17.9598 55.7173 17.8303C55.9776 17.7008 56.2621 17.6269 56.5525 17.6134C56.843 17.5998 57.1331 17.647 57.4043 17.7517C57.6756 17.8565 57.922 18.0166 58.1279 18.2219L58.1967 18.2938L58.1936 18.2906C58.493 18.532 58.7138 18.8571 58.8279 19.2244C58.942 19.5917 58.9442 19.9846 58.8342 20.3531L58.8311 20.3625V20.3594Z" fill="#002347"/>
</svg>
