<svg width="82" height="82" viewBox="0 0 82 82" fill="none" xmlns="http://www.w3.org/2000/svg">
<rect width="82" height="82" rx="8" fill="white"/>
<path d="M14.7915 68.7502C13.5068 68.7502 12.4153 68.301 11.517 67.4027C10.6187 66.5045 10.1686 65.4119 10.1665 64.1252V42.0793C10.1665 41.7196 10.1922 41.3599 10.2436 41.0002C10.295 40.6404 10.3721 40.3064 10.4748 39.9981L16.6415 22.5002C16.9498 21.5752 17.5028 20.83 18.3003 20.2647C19.0979 19.6995 19.9838 19.4168 20.9582 19.4168H28.6665C29.5401 19.4168 30.2719 19.7128 30.8618 20.3048C31.4518 20.8968 31.7478 21.6286 31.7498 22.5002C31.7519 23.3717 31.4559 24.1045 30.8618 24.6986C30.2678 25.2926 29.536 25.5876 28.6665 25.5835H22.0373L18.7998 34.8335H35.9123C36.7346 34.8335 37.5188 34.9877 38.2649 35.296C39.0111 35.6043 39.6658 36.0411 40.229 36.6064L48.7853 45.1627C48.2714 45.5738 47.8736 46.0877 47.592 46.7043C47.3104 47.321 47.1686 47.9891 47.1665 48.7085C47.1665 49.9932 47.6167 51.0857 48.517 51.9861C49.4173 52.8864 50.5088 53.3356 51.7915 53.3335C52.8193 53.3335 53.7443 53.0252 54.5665 52.4085C55.3887 51.7918 55.9283 50.9953 56.1853 50.0189C56.7505 50.1217 57.3025 50.1854 57.841 50.2101C58.3796 50.2347 58.9325 50.2224 59.4998 50.1731C59.8596 50.1217 60.1936 50.0703 60.5019 50.0189C60.8103 49.9675 61.1443 49.8904 61.504 49.7877C62.5318 49.4793 63.4825 49.5564 64.3561 50.0189C65.2297 50.4814 65.6665 51.2009 65.6665 52.1772V64.1252C65.6665 65.4099 65.2174 66.5024 64.3191 67.4027C63.4208 68.3031 62.3283 68.7522 61.0415 68.7502C59.7547 68.7481 58.6632 68.299 57.767 67.4027C56.8708 66.5065 56.4206 65.414 56.4165 64.1252V62.5835H19.4165V64.1252C19.4165 65.4099 18.9674 66.5024 18.0691 67.4027C17.1708 68.3031 16.0783 68.7522 14.7915 68.7502ZM24.0415 53.3335C25.3262 53.3335 26.4188 52.8844 27.3191 51.9861C28.2194 51.0878 28.6686 49.9953 28.6665 48.7085C28.6644 47.4217 28.2153 46.3302 27.3191 45.434C26.4229 44.5378 25.3303 44.0876 24.0415 44.0835C22.7527 44.0794 21.6612 44.5295 20.767 45.434C19.8728 46.3384 19.4227 47.4299 19.4165 48.7085C19.4103 49.987 19.8605 51.0796 20.767 51.9861C21.6735 52.8926 22.765 53.3417 24.0415 53.3335ZM50.2498 22.5002C51.1235 22.5002 51.8563 22.2042 52.4483 21.6122C53.0403 21.0202 53.3352 20.2884 53.3332 19.4168C53.3311 18.5453 53.0351 17.8135 52.4452 17.2215C51.8552 16.6295 51.1235 16.3335 50.2498 16.3335C49.3762 16.3335 48.6445 16.6295 48.0545 17.2215C47.4646 17.8135 47.1686 18.5453 47.1665 19.4168C47.1645 20.2884 47.4604 21.0212 48.0545 21.6152C48.6486 22.2093 49.3803 22.5043 50.2498 22.5002ZM55.029 42.696L39.304 26.971C38.8929 26.5599 38.5589 26.0583 38.3019 25.4663C38.045 24.8743 37.9165 24.2721 37.9165 23.6595V11.7085C37.9165 10.4238 38.3667 9.33227 39.267 8.434C40.1673 7.53572 41.2588 7.08555 42.5415 7.0835H54.4894C55.1061 7.0835 55.7104 7.21197 56.3024 7.46891C56.8944 7.72586 57.395 8.05989 57.804 8.471L73.529 24.196C74.4026 25.0696 74.8394 26.1621 74.8394 27.4736C74.8394 28.785 74.4026 29.8765 73.529 30.7481L61.5811 42.696C60.7075 43.5696 59.616 44.0064 58.3066 44.0064C56.9972 44.0064 55.9047 43.5696 55.029 42.696Z" fill="#002347"/>
</svg>
