<svg width="82" height="82" viewBox="0 0 82 82" fill="none" xmlns="http://www.w3.org/2000/svg">
<rect width="82" height="82" rx="8" fill="white"/>
<g clip-path="url(#clip0_744_36)">
<path fill-rule="evenodd" clip-rule="evenodd" d="M34.4497 14.4836C36.1886 13.0688 38.3619 12.2964 40.6037 12.2964C42.8454 12.2964 45.0187 13.0688 46.7576 14.4836L47.4091 15.0129L48.2315 14.8785C50.4451 14.5229 52.7136 14.9409 54.6551 16.0621C56.5965 17.1834 58.0923 18.9394 58.8905 21.0345L59.1877 21.8122L59.9654 22.1094C62.0604 22.9076 63.8165 24.4033 64.9377 26.3448C66.059 28.2862 66.477 30.5548 66.1214 32.7684L65.987 33.5949L66.5163 34.2422L65.1279 35.37L66.5122 34.2422C69.4314 37.8251 69.4314 42.9632 66.5122 46.5502L65.987 47.1975L66.1214 48.02C66.477 50.2335 66.059 52.5021 64.9377 54.4435C63.8165 56.385 62.0604 57.8808 59.9654 58.679L59.1877 58.9762L58.8905 59.7579C58.0916 61.8522 56.5955 63.6073 54.6541 64.7278C52.7127 65.8483 50.4446 66.2657 48.2315 65.9098L47.405 65.7795L46.7576 66.3047C45.0187 67.7195 42.8454 68.4919 40.6037 68.4919C38.3619 68.4919 36.1886 67.7195 34.4497 66.3047L33.8024 65.7755L32.9799 65.9098C30.7668 66.2657 28.4987 65.8483 26.5573 64.7278C24.6159 63.6073 23.1199 61.8522 22.3209 59.7579L22.0237 58.9762L21.242 58.679C19.1484 57.8793 17.3942 56.3829 16.2745 54.4416C15.1548 52.5003 14.738 50.2325 15.0941 48.02L15.2285 47.1975L14.6992 46.5461C13.2855 44.8075 12.5137 42.635 12.5137 40.3942C12.5137 38.1533 13.2855 35.9808 14.6992 34.2422L15.2285 33.5908L15.0941 32.7684C14.738 30.5558 15.1548 28.288 16.2745 26.3467C17.3942 24.4054 19.1484 22.909 21.242 22.1094L22.0237 21.8122L22.3209 21.0345C23.1191 18.9394 24.6149 17.1834 26.5563 16.0621C28.4978 14.9409 30.7663 14.5229 32.9799 14.8785L33.8024 15.0129L34.4497 14.4836ZM52.5839 28.416C52.3476 28.1797 52.067 27.9922 51.7582 27.8642C51.4495 27.7363 51.1185 27.6705 50.7843 27.6705C50.4501 27.6705 50.1191 27.7363 49.8103 27.8642C49.5016 27.9922 49.221 28.1797 48.9847 28.416L28.6276 48.7732C28.1503 49.2504 27.8822 49.8978 27.8822 50.5727C27.8822 51.2477 28.1503 51.895 28.6276 52.3723C29.1049 52.8496 29.7522 53.1177 30.4271 53.1177C31.1021 53.1177 31.7494 52.8496 32.2267 52.3723L52.5839 32.0152C52.8202 31.7789 53.0077 31.4983 53.1356 31.1895C53.2636 30.8808 53.3294 30.5498 53.3294 30.2156C53.3294 29.8814 53.2636 29.5504 53.1356 29.2416C53.0077 28.9329 52.8202 28.6523 52.5839 28.416ZM32.4629 28.1799C31.383 28.1799 30.3475 28.6088 29.5839 29.3724C28.8204 30.1359 28.3914 31.1715 28.3914 32.2513C28.3914 33.3311 28.8204 34.3667 29.5839 35.1302C30.3475 35.8938 31.383 36.3227 32.4629 36.3227C33.5427 36.3227 34.5783 35.8938 35.3418 35.1302C36.1053 34.3667 36.5343 33.3311 36.5343 32.2513C36.5343 31.1715 36.1053 30.1359 35.3418 29.3724C34.5783 28.6088 33.5427 28.1799 32.4629 28.1799ZM48.7486 44.4656C47.6688 44.4656 46.6332 44.8945 45.8696 45.6581C45.1061 46.4216 44.6771 47.4572 44.6771 48.537C44.6771 49.6168 45.1061 50.6524 45.8696 51.416C46.6332 52.1795 47.6688 52.6084 48.7486 52.6084C49.8284 52.6084 50.864 52.1795 51.6275 51.416C52.391 50.6524 52.82 49.6168 52.82 48.537C52.82 47.4572 52.391 46.4216 51.6275 45.6581C50.864 44.8945 49.8284 44.4656 48.7486 44.4656Z" fill="#002347"/>
</g>
<defs>
<clipPath id="clip0_744_36">
<rect width="57" height="57" fill="white" transform="translate(12 12)"/>
</clipPath>
</defs>
</svg>
