<svg width="82" height="82" viewBox="0 0 82 82" fill="none" xmlns="http://www.w3.org/2000/svg">
<rect width="82" height="82" rx="8" fill="white"/>
<path d="M15.3 46.875H72V66H65.7V59.625H15.3V66H9V15H15.3V46.875ZM40.5 27.75H65.7C67.3709 27.75 68.9733 28.4216 70.1548 29.6172C71.3363 30.8127 72 32.4342 72 34.125V43.6875H40.5V27.75ZM27.9 43.6875C25.3937 43.6875 22.9901 42.68 21.2178 40.8867C19.4456 39.0934 18.45 36.6611 18.45 34.125C18.45 31.5889 19.4456 29.1566 21.2178 27.3633C22.9901 25.57 25.3937 24.5625 27.9 24.5625C30.4063 24.5625 32.8099 25.57 34.5822 27.3633C36.3544 29.1566 37.35 31.5889 37.35 34.125C37.35 36.6611 36.3544 39.0934 34.5822 40.8867C32.8099 42.68 30.4063 43.6875 27.9 43.6875Z" fill="#002347"/>
</svg>
