<svg width="82" height="82" viewBox="0 0 82 82" fill="none" xmlns="http://www.w3.org/2000/svg">
<rect width="82" height="82" rx="8" fill="white"/>
<path d="M33.75 17.5367C38.8125 8.76846 50.9557 7.98546 59.724 13.048C68.4922 18.1105 73.8855 29.0185 68.823 37.7867L57.132 31.0367L51.2865 27.6617L45.441 24.2867L33.75 17.5367Z" fill="#002347"/>
<path d="M59.724 13.048C50.9557 7.98546 38.8125 8.76846 33.75 17.5367L45.441 24.2867M59.724 13.048C68.4922 18.1105 73.8855 29.0185 68.823 37.7867L51.2865 27.6617M59.724 13.048L61.4115 10.1252M59.724 13.048C53.5781 14.695 49.6597 16.9798 45.441 24.2867M59.724 13.048C61.371 19.1938 61.3507 23.7298 57.132 31.0367M45.441 24.2867L51.2865 27.6617M51.2865 27.6617L41.1615 45.1982M10.125 70.8752L13.095 67.3112C13.747 66.527 14.5682 65.9007 15.497 65.4793C16.4258 65.058 17.438 64.8526 18.4575 64.8786C19.477 64.9046 20.4774 65.1613 21.3836 65.6294C22.2897 66.0974 23.0779 66.7648 23.6891 67.5812C24.2918 68.3865 25.0668 69.0469 25.9575 69.5142C26.8482 69.9815 27.8321 70.2438 28.8372 70.282C29.8423 70.3202 30.8432 70.1332 31.7668 69.7349C32.6904 69.3365 33.5132 68.7367 34.1753 67.9795L34.8165 67.2437C35.5248 66.4334 36.3983 65.7839 37.3783 65.339C38.3582 64.894 39.422 64.6638 40.4983 64.6638C41.5746 64.6638 42.6384 64.894 43.6184 65.339C44.5983 65.7839 45.4718 66.4334 46.1801 67.2437L46.8247 67.9795C49.653 71.2093 54.7358 71.017 57.3109 67.5846C57.922 66.7675 58.7105 66.0997 59.6169 65.6312C60.5233 65.1627 61.5242 64.9058 62.5442 64.8798C63.5642 64.8539 64.5768 65.0594 65.5059 65.4812C66.435 65.9029 67.2564 66.5297 67.9084 67.3146L70.875 70.8752M22.6395 54.0002C27.5673 49.6418 33.9214 47.2404 40.5 47.2502C47.0786 47.2404 53.4327 49.6418 58.3605 54.0002" stroke="#002347" stroke-width="4" stroke-linecap="round" stroke-linejoin="round"/>
<path d="M15.0001 23.75C15.3062 23.75 15.6018 23.8624 15.8305 24.0659C16.0593 24.2693 16.2055 24.5497 16.2413 24.8537L16.2501 25V26.25C16.2497 26.5686 16.1277 26.875 15.909 27.1067C15.6903 27.3384 15.3914 27.4778 15.0733 27.4965C14.7553 27.5151 14.4421 27.4117 14.1978 27.2072C13.9535 27.0027 13.7965 26.7126 13.7588 26.3963L13.7501 26.25V25C13.7501 24.6685 13.8818 24.3505 14.1162 24.1161C14.3506 23.8817 14.6686 23.75 15.0001 23.75ZM22.8913 21.1375L23.0088 21.2412L23.8838 22.1163C24.108 22.3412 24.2382 22.643 24.2479 22.9605C24.2576 23.2779 24.1461 23.5871 23.936 23.8253C23.726 24.0636 23.4331 24.2129 23.117 24.243C22.8008 24.2731 22.4851 24.1818 22.2338 23.9875L22.1163 23.8838L21.2413 23.0087C21.0256 22.7934 20.896 22.5067 20.8769 22.2025C20.8578 21.8983 20.9505 21.5976 21.1375 21.357C21.3246 21.1163 21.5931 20.9523 21.8926 20.8958C22.1921 20.8393 22.5019 20.8941 22.7638 21.05L22.8913 21.1375ZM8.75883 21.2412C8.97405 21.4565 9.10334 21.7429 9.12244 22.0466C9.14154 22.3504 9.04914 22.6507 8.86258 22.8913L8.75883 23.0087L7.88383 23.8838C7.65888 24.1079 7.35704 24.2381 7.0396 24.2478C6.72216 24.2575 6.41294 24.146 6.17473 23.9359C5.93653 23.7259 5.7872 23.4331 5.75708 23.1169C5.72696 22.8008 5.81832 22.485 6.01258 22.2338L6.11633 22.1163L6.99133 21.2412C7.22574 21.0069 7.54363 20.8753 7.87508 20.8753C8.20654 20.8753 8.52442 21.0069 8.75883 21.2412ZM5.00008 13.75C5.31868 13.7504 5.62512 13.8723 5.85679 14.0911C6.08846 14.3098 6.22787 14.6087 6.24654 14.9267C6.26522 15.2448 6.16174 15.558 5.95725 15.8023C5.75276 16.0466 5.4627 16.2036 5.14633 16.2413L5.00008 16.25H3.75008C3.43148 16.2496 3.12504 16.1277 2.89337 15.9089C2.6617 15.6902 2.52229 15.3913 2.50361 15.0733C2.48494 14.7552 2.58842 14.442 2.79291 14.1977C2.9974 13.9534 3.28746 13.7964 3.60383 13.7587L3.75008 13.75H5.00008ZM26.2501 13.75C26.5687 13.7504 26.8751 13.8723 27.1068 14.0911C27.3385 14.3098 27.4779 14.6087 27.4965 14.9267C27.5152 15.2448 27.4117 15.558 27.2072 15.8023C27.0028 16.0466 26.7127 16.2036 26.3963 16.2413L26.2501 16.25H25.0001C24.6815 16.2496 24.375 16.1277 24.1434 15.9089C23.9117 15.6902 23.7723 15.3913 23.7536 15.0733C23.7349 14.7552 23.8384 14.442 24.0429 14.1977C24.2474 13.9534 24.5375 13.7964 24.8538 13.7587L25.0001 13.75H26.2501ZM7.76633 6.0125L7.88383 6.11625L8.75883 6.99125C8.98302 7.2162 9.11317 7.51804 9.12287 7.83548C9.13256 8.15292 9.02106 8.46214 8.81102 8.70035C8.60098 8.93855 8.30814 9.08788 7.99199 9.118C7.67583 9.14812 7.36007 9.05677 7.10883 8.8625L6.99133 8.75875L6.11633 7.88375C5.90144 7.66835 5.7725 7.38197 5.75366 7.07829C5.73483 6.77461 5.82741 6.47449 6.01403 6.23419C6.20066 5.99389 6.46853 5.82991 6.76742 5.77299C7.0663 5.71607 7.37569 5.77012 7.63758 5.925L7.76633 6.0125ZM23.8838 6.11625C24.0991 6.33149 24.2283 6.61787 24.2474 6.92165C24.2665 7.22543 24.1741 7.52574 23.9876 7.76625L23.8838 7.88375L23.0088 8.75875C22.7839 8.98293 22.482 9.11309 22.1646 9.12279C21.8472 9.13248 21.5379 9.02098 21.2997 8.81094C21.0615 8.6009 20.9122 8.30806 20.8821 7.99191C20.852 7.67575 20.9433 7.35999 21.1376 7.10875L21.2413 6.99125L22.1163 6.11625C22.3507 5.88191 22.6686 5.75027 23.0001 5.75027C23.3315 5.75027 23.6494 5.88191 23.8838 6.11625ZM15.0001 2.5C15.3062 2.50004 15.6018 2.61245 15.8305 2.81589C16.0593 3.01934 16.2055 3.29969 16.2413 3.60375L16.2501 3.75V5C16.2497 5.3186 16.1277 5.62504 15.909 5.85671C15.6903 6.08838 15.3914 6.22779 15.0733 6.24646C14.7553 6.26514 14.4421 6.16166 14.1978 5.95717C13.9535 5.75268 13.7965 5.46262 13.7588 5.14625L13.7501 5V3.75C13.7501 3.41848 13.8818 3.10054 14.1162 2.86612C14.3506 2.6317 14.6686 2.5 15.0001 2.5ZM15.0001 8.75C16.2247 8.74993 17.4223 9.10961 18.4442 9.78437C19.4662 10.4591 20.2673 11.4192 20.7483 12.5455C21.2292 13.6717 21.3687 14.9143 21.1494 16.1191C20.9301 17.3239 20.3618 18.4378 19.5149 19.3223C18.668 20.2069 17.5799 20.8231 16.3857 21.0945C15.1916 21.366 13.944 21.2806 12.798 20.8491C11.652 20.4175 10.6579 19.6588 9.9394 18.6672C9.22087 17.6756 8.80948 16.4947 8.75633 15.2712L8.75008 15L8.75633 14.7288C8.82623 13.1197 9.51459 11.5997 10.6779 10.4858C11.8411 9.37193 13.3895 8.75009 15.0001 8.75Z" fill="#002347"/>
</svg>
