<?xml version="1.0" encoding="utf-8"?>
<!-- Generator: Adobe Illustrator 24.3.0, SVG Export Plug-In . SVG Version: 6.00 Build 0)  -->
<svg version="1.1" xmlns="http://www.w3.org/2000/svg" xmlns:xlink="http://www.w3.org/1999/xlink" x="0px" y="0px"
	 viewBox="0 0 328.85 113.02" style="enable-background:new 0 0 328.85 113.02;" xml:space="preserve">
<style type="text/css">
	.st0{fill:#002D5D;}
	.st1{fill:#8FDADE;}
	.st2{fill:#00A0AF;}
</style>
<g id="Layer_1">
	<g>
		<g>
			<path class="st0" d="M82.35,75.14l0,22.23H71.22V45.71h11.13l0,7.92c3.6-6.7,12.77-9.72,23.78-7.89l0.07,11.3
				C94.82,52.6,82.35,60.57,82.35,75.14z"/>
			<path class="st0" d="M126.02,75.14l0,22.23h-11.13V45.71h11.13l0,7.92c3.6-6.7,12.77-9.72,23.78-7.89l0.07,11.3
				C138.49,52.6,126.02,60.57,126.02,75.14z"/>
			<path class="st0" d="M157.6,45.71h11.25l0,51.67H157.6L157.6,45.71z"/>
			<path class="st0" d="M237.85,45.71h11.25l0,51.67h-11.25L237.85,45.71z"/>
		</g>
	</g>
	<path class="st0" d="M50.15,45.71l0,7.14l-1.22-1.4c-1.47-1.68-3.43-3.15-5.82-4.39c-2.38-1.22-5.4-1.84-9-1.84
		c-3.62,0-6.95,0.59-9.88,1.76c-2.93,1.16-5.48,2.84-7.6,4.99c-2.11,2.15-3.78,4.8-4.94,7.87c-1.17,3.09-1.76,6.6-1.76,10.44
		c0,4.07,0.6,7.9,1.77,11.4c1.17,3.48,2.89,6.51,5.12,9.02c1.19,1.18,2.49,2.18,3.84,3.03c0.1,0.07,0.2,0.13,0.31,0.19
		c0.14,0.08,0.28,0.17,0.42,0.25c1.15,0.68,2.36,1.27,3.65,1.77c3.04,1.17,6.48,1.76,10.23,1.76c3.72,0,6.85-0.62,9.31-1.84
		c2.24-1.12,4.11-2.43,5.57-3.92l0,5.43h11.76V45.71H50.15z M26.88,59.75c1.74-2.09,3.97-3.42,6.63-3.94c1.75-0.34,3.82-0.34,5.57,0
		c2.66,0.52,4.89,1.85,6.63,3.94c2.29,2.75,3.45,6.88,3.45,12.28c0,5.4-1.16,9.54-3.45,12.29c-1.74,2.09-3.97,3.41-6.63,3.94
		c-0.88,0.17-1.81,0.26-2.79,0.26c-0.97,0-1.91-0.09-2.79-0.26c-2.66-0.52-4.89-1.85-6.63-3.94c-2.29-2.75-3.45-6.88-3.45-12.29
		C23.43,66.63,24.59,62.5,26.88,59.75z"/>
	<path class="st0" d="M298.88,45.71l0,7.14l-1.22-1.4c-1.47-1.68-3.43-3.15-5.82-4.39c-2.38-1.22-5.4-1.84-9-1.84
		c-3.62,0-6.95,0.59-9.88,1.76c-2.93,1.16-5.48,2.84-7.6,4.99c-2.11,2.15-3.78,4.8-4.94,7.87c-1.17,3.09-1.76,6.6-1.76,10.44
		c0,4.07,0.6,7.9,1.77,11.4c1.17,3.48,2.89,6.51,5.12,9.02c1.19,1.18,2.49,2.18,3.84,3.03c0.1,0.07,0.2,0.13,0.31,0.19
		c0.14,0.08,0.28,0.17,0.42,0.25c1.15,0.68,2.36,1.27,3.65,1.77c3.04,1.17,6.48,1.76,10.23,1.76c3.72,0,6.85-0.62,9.31-1.84
		c2.24-1.12,4.11-2.43,5.57-3.92l0,5.43h11.76V45.71H298.88z M275.61,59.75c1.74-2.09,3.97-3.42,6.63-3.94
		c1.75-0.34,3.82-0.34,5.57,0c2.66,0.52,4.89,1.85,6.63,3.94c2.29,2.75,3.45,6.88,3.45,12.28c0,5.4-1.16,9.54-3.45,12.29
		c-1.74,2.09-3.97,3.41-6.63,3.94c-0.88,0.17-1.81,0.26-2.79,0.26c-0.97,0-1.91-0.09-2.79-0.26c-2.66-0.52-4.89-1.85-6.63-3.94
		c-2.29-2.75-3.45-6.88-3.45-12.29C272.16,66.63,273.32,62.5,275.61,59.75z"/>
	<g>
		<path class="st0" d="M176.58,45.7h13.87l13.25,30.69l13.25-30.69h13.87l-25.27,50.4c-0.76,1.52-2.93,1.52-3.69,0L176.58,45.7z"/>
		<g>
			<path class="st1" d="M208.31,95.03L207.33,97c-0.69,1.38-2.08,2.24-3.63,2.24s-2.94-0.86-3.63-2.24l-0.99-1.96
				c-8.54,0.41-14.88,1.91-14.88,3.7c0,2.11,8.75,3.82,19.54,3.82s19.54-1.71,19.54-3.82C223.27,96.94,216.89,95.44,208.31,95.03z"
				/>
		</g>
	</g>
	<path class="st2" d="M217.55,39.98c0,0.53-0.03,1.06-0.09,1.6H231c0.03-0.56,0.05-1.09,0.05-1.6c0-15.93-11.64-28.89-27.58-28.89
		S175.9,24.05,175.9,39.98c0,0.51,0.02,1.04,0.05,1.6h13.54c-0.06-0.55-0.09-1.08-0.09-1.6c0-8.49,5.59-15.39,14.08-15.39
		S217.55,31.49,217.55,39.98z"/>
</g>
<g id="Layer_2">
</g>
</svg>
