<?xml version="1.0" encoding="utf-8"?>
<!-- Generator: Adobe Illustrator 21.0.2, SVG Export Plug-In . SVG Version: 6.00 Build 0)  -->
<svg version="1.1" id="Layer_1" xmlns="http://www.w3.org/2000/svg" xmlns:xlink="http://www.w3.org/1999/xlink" x="0px" y="0px"
	 viewBox="0 0 213.9 54" style="enable-background:new 0 0 213.9 54;" xml:space="preserve">
<style type="text/css">
	.st0{display:none;}
	.st1{fill:#FD8813;}
	.st2{fill:#FFFFFF;}
	.st3{fill:#F68820;}
	.st4{font-family:'Arial-BoldItalicMT';}
	.st5{font-size:11.829px;}
</style>
<rect x="-4" y="-6" class="st0" width="219" height="50"/>
<g>
	<path class="st1" d="M14.2,52.3c0,0-2-8.6-5.8-14.2c-3.3-4.9-7.8-7.2-8.4-7.4l9.5-4.6c0,0,2.9,0.9,5.6,4.7c2.8,4,3.5,7.3,3.5,7.3
		s4.9-6.5,5.8-7.6c0.9-1.1,5-6.5,8.4-9.2c3.4-2.7,10.7-7.9,11.8-8.7c0,0-1.5-0.9-3.9-1.9c-2.4-0.9-2-0.9-2-0.9l3.9,1.1l2.4,0.8
		l1-0.5V8.6c0,0-14.8-5.5-15.4-6l15.6,2.7l0.2-1.9l3,2.8c0,0,1.1-0.1,1.3-0.2c0.2-0.1,1.4-0.7,1.4-0.7L53,6c0,0,1.1,0.3,1.4,0.2
		c0.2,0,13.2-6,13.5-6c0.3,0,1.6,0.7,2.2,1.5c0.5,0.8,0.8,1.6,0.4,1.9c-0.3,0.3-6.6,5.4-6.6,5.4s1.1,1.3,1.5,1.3
		c0.4,0.1,3.7-0.1,3.7-0.1l0.2,1.3c0,0,3.3,2.2,3.9,2.5c0,0-0.2,0.4-1.7-0.1c-1.5-0.4-2.5-0.8-2.5-0.8L68,14l-5.6-2.5l-2.3,0.7
		c0,0-1.2-0.4-2.5-0.4c-1.3,0-5.1,0.8-7.6,2.4c-2.6,1.6-6.8,4.9-8.7,6.7c-2,1.8-7.1,6.5-10.1,10.6c0,0-5.2,6.9-7.1,9.5
		c0,0-1.7,2.3-2.1,3.2c-0.3,0.9-0.4,1.4-1.5,3.1c-1.1,1.7-2.8,4.1-4.1,4.8l-1.1,0.4L14.2,52.3z"/>
	<path class="st2" d="M42.3,36.5c0,0-0.5,4.1,1.4,6.5c1.8,2.2,3.2,2.8,8.7,2.4c5.5-0.4,7.9-3.5,8.9-7.2c0.9-3.7-0.1-6-0.9-6.9
		c-0.8-0.9-2.6-2-6.7-3.2c0,0-3-0.4-3-2c0-1.6,2-2.1,3-2c0.9,0.1,2.1,0.6,2.3,2.4l0.1,0.8l6.3-0.4c0,0,0.3-3.3-1-5
		c-1.3-1.7-3.3-2.6-6.7-2.6s-6.4,1.4-7.3,2.3c-0.9,0.9-2.2,2.3-2.7,4.6c-0.4,1.6-0.3,4.1,1.5,5.8c1.6,1.5,2.9,2,6.3,3
		c3.3,1,2.7,2.8,2.7,2.8s-0.4,2.4-3,2.6c-2.7,0.1-3-1.5-3.3-4.2L42.3,36.5z"/>
	<path class="st2" d="M65.1,26.6l-3.6,18.3h5.8l2.7-13.8c0,0,0.8-1,1.8-0.9c1,0.1,1.2,1.3,1.1,2.1c-0.1,0.8-2.4,12.6-2.4,12.6h6.7
		l2.8-13.7c0,0,0.4-1,1.8-1C83.3,30.3,83,32,83,32l-2.5,13h6.3l2.8-13.8c0,0,0.3-2.1-0.9-3.4c-1.1-1.3-2.4-1.6-3.8-1.6
		c-1.4,0-4,0.9-5.6,3.2c0,0-0.6-3.2-3.9-3.2c-3.5,0-5.2,2.3-5.2,2.3l-0.4,0l0.2-1.8L65.1,26.6z"/>
	<path class="st2" d="M97,32.3L91.6,32c0,0,0.6-2.7,2.6-4.4c2-1.7,5-1.9,5.4-1.9c0.4,0,3.4-0.1,4.9,0.9c1.5,1,2.5,2.5,2.3,4.7
		c0,0-0.6,5-1.8,8c0,0-0.5,2.4-0.5,3.1c-0.1,0.7,0.2,2,0.3,2.2l-0.5,0.7h-4.7c0,0-0.4-0.8-0.3-1.4c0,0-2.1,2-4.8,1.9
		c-2.7-0.1-4.4-1.9-4.8-3.6c-0.4-1.7-0.3-4.9,1.3-6.5c1.5-1.6,3.5-2,6.5-2.3c3-0.3,3.6-0.2,3.8-1.3c0.2-1,0.1-2.1-1.7-2
		C97.8,30.3,97.1,31.8,97,32.3z M98.3,40.5c1.3-0.9,1.8-3.5,1.8-3.5s-0.9,0.1-3.2,0.6c-2.3,0.5-2.2,2.1-2.2,2.1
		C95.2,42,97,41.3,98.3,40.5z"/>
	<path class="st1" d="M153,33.2l-5.4-0.3c0,0,0.6-2.7,2.6-4.4c2-1.7,5-1.9,5.4-1.9c0.4,0,3.4-0.1,4.9,0.9c1.5,1,2.5,2.5,2.3,4.7
		c0,0-0.6,5-1.8,8c0,0-0.5,2.4-0.5,3.1c-0.1,0.7,0.2,2,0.3,2.2l-0.5,0.7h-4.7c0,0-0.4-0.8-0.3-1.4c0,0-2.1,2-4.8,1.9
		c-2.7-0.1-4.4-1.9-4.8-3.6c-0.4-1.7-0.3-4.9,1.3-6.5c1.5-1.6,3.5-2,6.5-2.3c3-0.3,3.6-0.2,3.8-1.3c0.2-1,0.1-2.1-1.7-2
		C153.8,31.2,153.1,32.8,153,33.2z M154.3,41.4c1.3-0.9,1.8-3.5,1.8-3.5s-0.9,0.1-3.2,0.6c-2.3,0.5-2.2,2.1-2.2,2.1
		C151.2,43,153,42.3,154.3,41.4z"/>
	<path class="st1" d="M165.9,27.1l-3.6,18.7l0.5,0.6h4.9c0,0,1.5-7.9,2-9.7c0.5-1.8,1.6-4.1,4.2-4.7c0,0,1.3-0.2,1.8,0.3l2.1-4.8
		c0,0-1.3-0.9-2.8-0.8c-1.5,0-2.9,1-4.2,2.3l0.3-1.2l-0.5-0.6L165.9,27.1z"/>
	<path class="st2" d="M109.9,26.1l-3.6,18.7l0.5,0.6h4.9c0,0,1.5-7.9,2-9.7c0.5-1.8,1.6-4.1,4.2-4.7c0,0,1.3-0.2,1.8,0.3l2.1-4.8
		c0,0-1.3-0.9-2.8-0.8c-1.5,0-2.9,1-4.2,2.3l0.3-1.2l-0.5-0.7L109.9,26.1z"/>
	<path class="st2" d="M123.7,20.7h5.4l-1.1,5.4h2.4l0.3,0.6l-0.8,4h-2.7l-1.9,9.6c0,0-0.1,0.6,0.6,0.7c0.7,0.1,1.9,0,1.9,0l0.6,0.5
		l-0.8,3.9c0,0-0.4,0.5-3.2,0.4c-2.8-0.1-3.6-1.1-4.1-1.9c-0.5-0.8-0.7-2.1-0.5-3.3c0.2-1.1,2-10,2-10l-2-0.1l0.9-4.6h1.9
		L123.7,20.7z"/>
	<polygon class="st1" points="133.1,20.7 128.7,45.9 135.2,45.9 137.1,35.6 145.2,35.6 146.2,30.5 137.9,30.4 138.8,26.1 
		148.3,26.1 149.3,20.7 	"/>
	<path class="st3" d="M185.9,26.6c0,0,2.7,0.2,3.9,1.7c1.2,1.6,1.6,3.4,1.4,5.2c-0.2,1.8-0.7,4.8-1.1,5.2H180c0,0-0.1,1.5,0.1,2.2
		c0.2,0.6,0.8,1.6,1.9,1.5c1.1-0.1,2.3-0.7,3.2-2.6h4.6c0,0-1,3.3-3.1,4.8c-2.1,1.5-3.1,2.2-5.5,2.1c-2.3-0.1-4-0.9-5.2-3.1
		c0,0-0.9-1.1-0.8-4.3c0-3.2,1.6-6.8,2.4-7.8C178.4,30.5,180.7,26.8,185.9,26.6z M186.4,32.2c-0.3-1.2-1.9-1.2-1.9-1.2
		c-2.1,0.2-3.4,3.7-3.4,3.7h5.5C186.6,34.8,186.7,33.5,186.4,32.2z"/>
	<path class="st1" d="M190.2,39.9h4.3c0,0,0.6,2.1,1.8,2.3c1.3,0.3,2.7,0.6,3.4-1c0,0,0.5-1.2-0.9-1.5c0,0-4.5-1.8-5.3-2.7
		c-0.9-0.9-1.5-2.5-1.5-4.2c0-1.7,1.1-3.8,2.8-5c1.7-1.1,5-1.1,5-1.1s3.8,0.3,4.8,2.3c1,1.7,1.3,3,1.4,4l-4.7,0.3c0,0-0.6-2.1-2-2.2
		c-1.4,0-2.4-0.1-2.7,1c-0.3,1,0.7,1.3,1.4,1.6c0.7,0.3,4.9,1.6,6,3.6c1.1,2,0.8,3.8,0.5,4.7c-0.2,0.9-1,3.6-4.5,4.7
		c-2.6,0.8-6.7,0.2-8.4-1.8C190,42.8,190.2,39.9,190.2,39.9z"/>
</g>
</svg>
