<?xml version="1.0"?>
<svg width="400" height="80" xmlns="http://www.w3.org/2000/svg" xmlns:svg="http://www.w3.org/2000/svg" clip-rule="evenodd" fill-rule="evenodd" version="1.1">
 <g class="layer">
  <title>Layer 1</title>
  <g id="svg_9">
   <path d="m59.83,7.17c0.59,-1.27 0.59,-2.27 0,-3c-2.35,3.43 -5.68,4.93 -10,4.5c1.76,0.2 3.42,0.7 5,1.5c-0.5,0.33 -1,0.67 -1.5,1c-2.58,-0.34 -4.74,-1.34 -6.5,-3c0.21,-0.59 0.54,-1.09 1,-1.5c4.38,0.23 8.05,-1.1 11,-4c0.95,-0.48 1.95,-0.65 3,-0.5c0.38,2.2 -0.29,3.86 -2,5z" fill="#d7bf3c" id="svg_10" stroke-width="100"/>
  </g>
  <g id="svg_11">
   <path d="m59.83,7.17c0.7,3.08 1.7,6.08 3,9c-0.33,0.67 -0.67,1.33 -1,2c-1.86,-1.03 -3.19,-2.53 -4,-4.5c-1.08,-0.47 -2.08,-0.3 -3,0.5c0.93,-2.87 2.6,-5.2 5,-7z" fill="#c1b138" id="svg_12" stroke-width="100"/>
  </g>
  <g id="svg_13">
   <path d="m57.83,10.17c1.58,0.5 2.08,1.5 1.5,3c-1.04,-0.74 -1.54,-1.74 -1.5,-3z" fill="#302e21" id="svg_14" stroke-width="100"/>
  </g>
  <g id="svg_15">
   <path d="m20.83,30.17c-0.86,-3.23 -1.36,-7.23 -1.5,-12c-0.14,4.77 -0.64,8.77 -1.5,12c0,-4 0,-8 0,-12c-2,0 -4,0 -6,0c-1,0 -2,0 -3,0c0,-1.33 0,-2.67 0,-4c0.11,-0.62 0.44,-1.12 1,-1.5c3.59,-0.79 7.09,-0.62 10.5,0.5c0.5,5.66 0.67,11.32 0.5,17z" fill="#e2a33e" id="svg_16" stroke-width="100"/>
  </g>
  <g id="svg_17">
   <path d="m9.83,14.17c3.4,-0.32 6.73,0.01 10,1c-1.67,0.33 -3.33,0.67 -5,1c-2.14,-0.06 -3.81,-0.72 -5,-2z" fill="#201e1c" id="svg_18" stroke-width="100"/>
  </g>
  <g id="svg_27">
   <path d="m54.83,14.17c0,1.67 0,3.33 0,5c-5.22,-1.2 -5.22,-2.86 0,-5z" fill="#baa637" id="svg_28" stroke-width="100"/>
  </g>
  <g id="svg_55">
   <path d="m48.83,19.17c0.74,-0.13 1.41,0.04 2,0.5c-5.97,7.49 -13.63,10.32 -23,8.5c4.37,-0.7 8.7,-1.54 13,-2.5c3.44,-1.27 6.1,-3.44 8,-6.5z" fill="#c4a238" id="svg_56" stroke-width="100"/>
  </g>
  <g id="svg_61">
   <path d="m8.83,14.17c0,1.33 0,2.67 0,4c1,0 2,0 3,0c0,4 0,8 0,12c2,0 4,0 6,0c0.86,-3.23 1.36,-7.23 1.5,-12c0.14,4.77 0.64,8.77 1.5,12c4.52,-0.23 6.69,1.77 6.5,6c-0.47,-1.43 -1.3,-2.6 -2.5,-3.5c-6.67,-0.67 -13.33,-0.67 -20,0c-0.54,0.72 -1.21,1.22 -2,1.5c-0.33,0 -0.67,0 -1,0c1.21,-2.54 3.21,-3.88 6,-4c-0.32,-5.53 0.01,-10.86 1,-16z" fill="#a77733" id="svg_62" stroke-width="100"/>
  </g>
  <g id="svg_63">
   <path d="m11.83,18.17c2,0 4,0 6,0c0,4 0,8 0,12c-2,0 -4,0 -6,0c0,-4 0,-8 0,-12z" fill="#1a1b1a" id="svg_64" stroke-width="100"/>
  </g>
  <g id="svg_69">
   <path d="m6.83,37.17c4.71,-0.33 9.38,0.01 14,1c-2.33,0.33 -4.67,0.67 -7,1c-2.77,-0.03 -5.1,-0.7 -7,-2z" fill="#966c30" id="svg_70" stroke-width="100"/>
  </g>
  <g id="svg_71">
   <path d="m60.83,39.17c-3.54,0.31 -6.88,-0.02 -10,-1c0.17,-1.32 -0.16,-2.49 -1,-3.5c-4.65,-0.5 -9.32,-0.67 -14,-0.5c-0.27,1.6 0.07,2.93 1,4c0.33,0.67 0.67,1.33 1,2c-4.6,-0.3 -9.1,0.03 -13.5,1c-0.5,7.66 -0.67,15.33 -0.5,23c-0.62,-0.11 -1.12,-0.44 -1.5,-1c-0.67,-7.33 -0.67,-14.67 0,-22c0.83,-0.83 1.67,-1.67 2.5,-2.5c2.98,-0.5 5.98,-0.66 9,-0.5c-0.32,-2.22 0.34,-4.06 2,-5.5c4.67,-0.67 9.33,-0.67 14,0c1.66,1.44 2.32,3.28 2,5.5c3.21,-0.31 6.21,0.02 9,1z" fill="#b49035" id="svg_72" stroke-width="100"/>
  </g>
  <g id="svg_73">
   <path d="m50.83,38.17c-0.77,-0.67 -1.43,-1.51 -2,-2.5c-3.99,-0.5 -7.99,-0.67 -12,-0.5c0,1 0,2 0,3c-0.93,-1.07 -1.27,-2.4 -1,-4c4.68,-0.17 9.35,0 14,0.5c0.84,1.01 1.17,2.18 1,3.5z" fill="#463f22" id="svg_74" stroke-width="100"/>
  </g>
  <g id="svg_75">
   <path d="m50.83,38.17c3.12,0.98 6.46,1.31 10,1c1.29,0.56 2.12,1.56 2.5,3c0.67,7 0.67,14 0,21c-1.04,1.21 -2.21,2.21 -3.5,3c0,-0.33 0,-0.67 0,-1c0,-0.33 0,-0.67 0,-1c0.62,-0.11 1.12,-0.44 1.5,-1c0.67,-7.33 0.67,-14.67 0,-22c-1.36,-0.88 -2.86,-1.21 -4.5,-1c0,7.67 0,15.33 0,23c-0.33,0 -0.67,0 -1,0c0,-7.67 0,-15.33 0,-23c-6,0 -12,0 -18,0c-0.33,-0.67 -0.67,-1.33 -1,-2c0,-1 0,-2 0,-3c4.01,-0.17 8.01,0 12,0.5c0.57,0.99 1.23,1.83 2,2.5z" fill="#c1ab38" id="svg_76" stroke-width="100"/>
  </g>
  <g id="svg_77">
   <path d="m37.83,36.17c3.4,-0.32 6.73,0.01 10,1c-1.67,0.33 -3.33,0.67 -5,1c-2.14,-0.06 -3.81,-0.72 -5,-2z" fill="#1e1d1c" id="svg_78" stroke-width="100"/>
  </g>
  <g id="svg_79">
   <path d="m37.83,40.17c6,0 12,0 18,0c0,7.67 0,15.33 0,23c-9.82,0.99 -19.82,1.33 -30,1c-0.67,0 -1.33,0 -2,0c-0.17,-7.67 0,-15.34 0.5,-23c4.4,-0.97 8.9,-1.3 13.5,-1z" fill="#1f1e1c" id="svg_80" stroke-width="100"/>
  </g>
  <g id="svg_81">
   <path d="m59.83,64.17c-1.29,0.24 -2.29,-0.1 -3,-1c0,-7.67 0,-15.33 0,-23c1.64,-0.21 3.14,0.12 4.5,1c0.67,7.33 0.67,14.67 0,22c-0.38,0.56 -0.88,0.89 -1.5,1z" fill="#1d1d1d" id="svg_82" stroke-width="100"/>
  </g>
  <g id="svg_85">
   <path d="m27.83,41.17c1.32,3.27 1.99,6.93 2,11c-0.33,3.67 -0.67,7.33 -1,11c-1,-7.3 -1.33,-14.64 -1,-22z" fill="#aa8634" id="svg_86" stroke-width="100"/>
  </g>
  <g id="svg_101">
   <path d="m45.83,44.17c2.33,0 4.67,0 7,0c0.15,1.05 -0.02,2.05 -0.5,3c-1.43,-2.29 -3.26,-2.62 -5.5,-1c-0.8,-0.46 -1.13,-1.12 -1,-2z" fill="#25231e" id="svg_102" stroke-width="100"/>
  </g>
  <g id="svg_109">
   <path d="m45.83,54.17c-1,0 -2,0 -3,0c0,-1 0,-2 0,-3c1.08,-1.06 2.08,-1.06 3,0c-0.53,0.69 -1.19,1.19 -2,1.5c0.92,0.28 1.58,0.78 2,1.5z" fill="#ecc63f" id="svg_110" stroke-width="100"/>
  </g>
  <g id="svg_113">
   <path d="m1.4,34.17c0.33,0 0.67,0 1,0c-0.17,9.01 0,18.01 0.5,27c5.45,0.65 10.95,1.31 16.5,2c-4.18,0.57 -8.18,1.57 -12,3c-1.97,-1.14 -3.81,-2.47 -5.5,-4c-0.5,-9.33 -0.67,-18.66 -0.5,-28z" fill="#d18e3b" id="svg_114" stroke-width="100"/>
  </g>
  <text fill="#d79c3d" font-family="Fantasy" font-size="45" id="svg_1" letter-spacing="0" stroke="#000000" stroke-width="0" text-anchor="middle" transform="matrix(0.663527, 0, 0, 0.763891, 25.3177, -4.16549)" x="265" xml:space="preserve" y="85.44">VACATIONSAVERS</text>
 </g>

</svg>