<?xml version="1.0" encoding="UTF-8"?>
<!DOCTYPE svg PUBLIC "-//W3C//DTD SVG 1.1//EN" "http://www.w3.org/Graphics/SVG/1.1/DTD/svg11.dtd">
<svg xmlns="http://www.w3.org/2000/svg" version="1.1" width="640px" height="109px" style="shape-rendering:geometricPrecision; text-rendering:geometricPrecision; image-rendering:optimizeQuality; fill-rule:evenodd; clip-rule:evenodd" xmlns:xlink="http://www.w3.org/1999/xlink">
<g><path style="opacity:0.984" fill="#e8a338" d="M 84.5,-0.5 C 85.5,-0.5 86.5,-0.5 87.5,-0.5C 88.1667,0.833333 88.8333,0.833333 89.5,-0.5C 96.5,-0.5 103.5,-0.5 110.5,-0.5C 111.167,0.833333 111.833,0.833333 112.5,-0.5C 113.5,-0.5 114.5,-0.5 115.5,-0.5C 115.082,0.221579 114.416,0.721579 113.5,1C 114.784,1.68379 115.951,1.51712 117,0.5C 117.7,2.03202 118.866,3.03202 120.5,3.5C 121.768,2.57211 123.101,2.40544 124.5,3C 122.099,3.805 122.266,4.63834 125,5.5C 125.718,4.54943 126.551,4.38277 127.5,5C 128.752,6.82784 128.752,8.66117 127.5,10.5C 126.833,10.5 126.5,10.8333 126.5,11.5C 125.732,12.2625 125.232,13.2625 125,14.5C 123.841,13.434 123.008,13.7673 122.5,15.5C 121.833,15.5 121.5,15.8333 121.5,16.5C 120.508,16.3284 119.842,16.6618 119.5,17.5C 118.25,17.5774 117.417,18.244 117,19.5C 116.329,18.7476 115.496,18.4142 114.5,18.5C 113.167,18.5 111.833,18.5 110.5,18.5C 109.178,18.33 108.011,18.6634 107,19.5C 105.475,18.2799 103.641,17.6132 101.5,17.5C 98.3033,17.9811 95.6366,18.6478 93.5,19.5C 92.8333,19.5 92.5,19.8333 92.5,20.5C 91.8333,20.5 91.5,20.8333 91.5,21.5C 90.8333,22.1667 90.1667,22.8333 89.5,23.5C 88.4107,21.8829 86.744,21.0496 84.5,21C 78.1444,20.4065 71.8111,20.5731 65.5,21.5C 64.3183,19.4389 64.9849,17.9389 67.5,17C 66.4652,15.4931 66.6319,13.9931 68,12.5C 69.9579,12.7914 71.4579,11.7914 72.5,9.5C 73.1667,9.5 73.5,9.16667 73.5,8.5C 77.1897,4.99689 81.5231,2.49689 86.5,1C 85.5842,0.721579 84.9175,0.221579 84.5,-0.5 Z"/></g>
<g><path style="opacity:0.004" fill="#000000" d="M 118.5,0.5 C 119.833,1.16667 119.833,1.16667 118.5,0.5 Z"/></g>
<g><path style="opacity:0.004" fill="#000000" d="M 16.5,3.5 C 18.2884,2.37753 20.2884,2.21086 22.5,3C 20.5273,3.49546 18.5273,3.66212 16.5,3.5 Z"/></g>
<g><path style="opacity:0.008" fill="#000000" d="M 14.5,3.5 C 15.8333,4.16667 15.8333,4.16667 14.5,3.5 Z"/></g>
<g><path style="opacity:0.006" fill="#000000" d="M 25.5,4.5 C 24.7611,4.63101 24.0944,4.46434 23.5,4C 24.4368,3.30831 25.1034,3.47498 25.5,4.5 Z"/></g>
<g><path style="opacity:0.004" fill="#000000" d="M 9.5,7.5 C 8.83333,6.16667 8.83333,6.16667 9.5,7.5 Z"/></g>
<g><path style="opacity:0.999" fill="#e99814" d="M 25.5,4.5 C 27.8127,6.37371 30.146,8.37371 32.5,10.5C 33.1667,11.1667 33.8333,11.8333 34.5,12.5C 33.1667,12.8333 33.1667,13.1667 34.5,13.5C 34.5774,14.7498 35.244,15.5831 36.5,16C 35.1834,18.9365 35.1834,21.7699 36.5,24.5C 35.8333,25.8333 35.1667,27.1667 34.5,28.5C 33.5116,29.795 32.5116,31.1283 31.5,32.5C 28.4372,30.9488 25.7705,28.7821 23.5,26C 20.46,23.7796 17.1267,22.2796 13.5,21.5C 10.5757,20.6341 7.57574,19.6341 4.5,18.5C 5.30937,16.9291 5.64271,15.2624 5.5,13.5C 5.38929,12.8826 5.05596,12.3826 4.5,12C 6.6605,11.0041 8.32716,9.5041 9.5,7.5C 10.2389,7.63101 10.9056,7.46434 11.5,7C 11.9302,6.0805 12.2635,5.24717 12.5,4.5C 16.9635,4.56775 21.2968,4.56775 25.5,4.5 Z"/></g>
<g><path style="opacity:0.004" fill="#000000" d="M 73.5,8.5 C 72.8333,8.5 72.5,8.83333 72.5,9.5C 71.9569,9.44001 71.6236,9.10667 71.5,8.5C 72.2565,7.22671 72.9232,7.22671 73.5,8.5 Z"/></g>
<g><path style="opacity:0.004" fill="#000000" d="M 129.5,7.5 C 130.833,8.16667 130.833,8.16667 129.5,7.5 Z"/></g>
<g><path style="opacity:0.004" fill="#000000" d="M 32.5,9.5 C 33.8333,10.1667 33.8333,10.1667 32.5,9.5 Z"/></g>
<g><path style="opacity:0.004" fill="#000000" d="M 127.5,10.5 C 128.833,11.1667 128.833,11.1667 127.5,10.5 Z"/></g>
<g><path style="opacity:0.004" fill="#000000" d="M 126.5,11.5 C 126.833,11.5 127.167,11.5 127.5,11.5C 127.167,14.1667 126.833,14.1667 126.5,11.5 Z"/></g>
<g><path style="opacity:0.004" fill="#000000" d="M 34.5,12.5 C 35.8333,13.1667 35.8333,13.1667 34.5,12.5 Z"/></g>
<g><path style="opacity:0.004" fill="#000000" d="M 122.5,16.5 C 122.5,16.1667 122.5,15.8333 122.5,15.5C 125.167,15.8333 125.167,16.1667 122.5,16.5 Z"/></g>
<g><path style="opacity:0.004" fill="#000000" d="M 121.5,16.5 C 121.833,16.5 122.167,16.5 122.5,16.5C 122.315,17.1701 121.981,17.1701 121.5,16.5 Z"/></g>
<g><path style="opacity:0.004" fill="#000000" d="M 1.5,17.5 C 2.52502,17.8966 2.69169,18.5632 2,19.5C 1.53566,18.9056 1.36899,18.2389 1.5,17.5 Z"/></g>
<g><path style="opacity:0.008" fill="#000000" d="M 36.5,24.5 C 36.3367,22.1432 36.5034,19.8098 37,17.5C 37.7958,20.0385 37.6291,22.3718 36.5,24.5 Z"/></g>
<g><path style="opacity:0.006" fill="#000000" d="M 119.5,18.5 C 119.5,18.1667 119.5,17.8333 119.5,17.5C 120.167,17.5 120.833,17.5 121.5,17.5C 121.158,18.3382 120.492,18.6716 119.5,18.5 Z"/></g>
<g><path style="opacity:0.004" fill="#000000" d="M 97.5,19.5 C 99.6282,18.3709 101.961,18.2042 104.5,19C 102.19,19.4966 99.8568,19.6633 97.5,19.5 Z"/></g>
<g><path style="opacity:0.009" fill="#000000" d="M 110.5,18.5 C 111.833,18.5 113.167,18.5 114.5,18.5C 114.611,19.1174 114.944,19.6174 115.5,20C 113.236,20.2362 111.069,20.7362 109,21.5C 108.761,20.212 109.261,19.212 110.5,18.5 Z"/></g>
<g><path style="opacity:0.004" fill="#000000" d="M 119.5,18.5 C 118.833,19.1667 118.833,19.1667 119.5,18.5 Z"/></g>
<g><path style="opacity:0.004" fill="#000000" d="M 93.5,19.5 C 94.8333,20.1667 94.8333,20.1667 93.5,19.5 Z"/></g>
<g><path style="opacity:0.004" fill="#000000" d="M 1.5,20.5 C 2.83333,21.1667 2.83333,21.1667 1.5,20.5 Z"/></g>
<g><path style="opacity:0.004" fill="#000000" d="M 92.5,20.5 C 92.8333,20.5 93.1667,20.5 93.5,20.5C 93.3147,21.1701 92.9813,21.1701 92.5,20.5 Z"/></g>
<g><path style="opacity:0.882" fill="#886b32" d="M 5.5,13.5 C 5.64271,15.2624 5.30937,16.9291 4.5,18.5C 7.57574,19.6341 10.5757,20.6341 13.5,21.5C 10.8333,21.5 8.16667,21.5 5.5,21.5C 5.5,22.8333 5.5,24.1667 5.5,25.5C 4.83333,25.5 4.5,25.8333 4.5,26.5C 3.22641,25.8106 3.22641,24.9772 4.5,24C 3.83333,23.6667 3.16667,23.3333 2.5,23C 3.73762,20.3816 3.73762,17.715 2.5,15C 2.94437,13.2382 3.44437,13.4049 4,15.5C 4.27842,14.5842 4.77842,13.9175 5.5,13.5 Z"/></g>
<g><path style="opacity:0.999" fill="#efc557" d="M 13.5,21.5 C 17.1267,22.2796 20.46,23.7796 23.5,26C 25.7705,28.7821 28.4372,30.9488 31.5,32.5C 31.427,34.0269 32.0937,35.0269 33.5,35.5C 34.3039,37.0094 35.4705,38.3427 37,39.5C 38.0086,41.0249 38.5086,42.6916 38.5,44.5C 37.1667,45.1667 37.1667,45.8333 38.5,46.5C 38.5774,47.7498 39.244,48.5831 40.5,49C 39.9056,49.4643 39.2389,49.631 38.5,49.5C 37.8333,49.5 37.1667,49.5 36.5,49.5C 36.5,48.8333 36.1667,48.5 35.5,48.5C 35.1667,48.5 34.8333,48.5 34.5,48.5C 34.5,47.8333 34.1667,47.5 33.5,47.5C 33.1667,47.5 32.8333,47.5 32.5,47.5C 32.1583,46.6618 31.4916,46.3284 30.5,46.5C 29.791,45.596 28.791,45.2627 27.5,45.5C 25.1617,43.9605 22.4951,43.2938 19.5,43.5C 19.5,42.8333 19.1667,42.5 18.5,42.5C 16.1667,42.5 13.8333,42.5 11.5,42.5C 11.7373,41.209 11.404,40.209 10.5,39.5C 8.62469,38.0492 7.95803,36.3825 8.5,34.5C 8.16667,31.8333 7.83333,31.8333 7.5,34.5C 6.29473,33.3281 6.29473,31.9948 7.5,30.5C 6.72964,28.3078 5.72964,26.9745 4.5,26.5C 5.16667,26.5 5.5,26.1667 5.5,25.5C 5.5,24.1667 5.5,22.8333 5.5,21.5C 8.16667,21.5 10.8333,21.5 13.5,21.5 Z"/></g>
<g><path style="opacity:0.004" fill="#000000" d="M 64.5,22.5 C 63.8333,21.1667 63.8333,21.1667 64.5,22.5 Z"/></g>
<g><path style="opacity:0.997" fill="#efc457" d="M 89.5,23.5 C 89.5,23.8333 89.5,24.1667 89.5,24.5C 88.9189,26.4483 88.2522,28.7816 87.5,31.5C 83.4091,32.8955 79.0758,33.5621 74.5,33.5C 73.1667,33.5 71.8333,33.5 70.5,33.5C 69.8333,33.5 69.5,33.8333 69.5,34.5C 67.901,34.2322 66.5676,34.5655 65.5,35.5C 65.1667,35.5 64.8333,35.5 64.5,35.5C 63.209,35.2627 62.209,35.596 61.5,36.5C 61.1667,36.5 60.8333,36.5 60.5,36.5C 60.6716,35.5084 60.3382,34.8417 59.5,34.5C 60.3777,31.9437 61.7111,29.6104 63.5,27.5C 62.5721,26.2322 62.4054,24.8989 63,23.5C 64.1068,24.7119 64.6068,24.3786 64.5,22.5C 65.1667,22.5 65.5,22.1667 65.5,21.5C 71.8111,20.5731 78.1444,20.4065 84.5,21C 86.744,21.0496 88.4107,21.8829 89.5,23.5 Z"/></g>
<g><path style="opacity:0.004" fill="#000000" d="M 91.5,21.5 C 91.8333,21.5 92.1667,21.5 92.5,21.5C 92.3147,22.1701 91.9813,22.1701 91.5,21.5 Z"/></g>
<g><path style="opacity:0.004" fill="#000000" d="M 89.5,24.5 C 90.8333,25.1667 90.8333,25.1667 89.5,24.5 Z"/></g>
<g><path style="opacity:0.004" fill="#000000" d="M 34.5,28.5 C 35.8333,29.1667 35.8333,29.1667 34.5,28.5 Z"/></g>
<g><path style="opacity:0.004" fill="#000000" d="M 88.5,29.5 C 89.8333,30.1667 89.8333,30.1667 88.5,29.5 Z"/></g>
<g><path style="opacity:0.004" fill="#000000" d="M 179.5,29.5 C 180.833,30.1667 180.833,30.1667 179.5,29.5 Z"/></g>
<g><path style="opacity:0.004" fill="#000000" d="M 301.5,29.5 C 302.833,30.1667 302.833,30.1667 301.5,29.5 Z"/></g>
<g><path style="opacity:0.004" fill="#000000" d="M 310.5,30.5 C 309.761,30.631 309.094,30.4643 308.5,30C 309.437,29.3083 310.103,29.475 310.5,30.5 Z"/></g>
<g><path style="opacity:0.067" fill="#513618" d="M 445.5,30.5 C 440.138,30.4724 434.805,30.8058 429.5,31.5C 429.082,30.7784 428.416,30.2784 427.5,30C 428.899,29.4054 430.232,29.5721 431.5,30.5C 432.167,29.8333 432.833,29.1667 433.5,28.5C 437.32,29.7992 441.153,29.7992 445,28.5C 446.684,28.6834 446.85,29.3501 445.5,30.5 Z"/></g>
<g><path style="opacity:0.004" fill="#000000" d="M 450.5,30.5 C 449.833,29.1667 449.833,29.1667 450.5,30.5 Z"/></g>
<g><path style="opacity:0.004" fill="#000000" d="M 310.5,30.5 C 311.833,31.1667 311.833,31.1667 310.5,30.5 Z"/></g>
<g><path style="opacity:0.004" fill="#000000" d="M 142.5,31.5 C 143.525,31.8966 143.692,32.5632 143,33.5C 142.536,32.9056 142.369,32.2389 142.5,31.5 Z"/></g>
<g><path style="opacity:0.004" fill="#000000" d="M 299.5,31.5 C 300.65,36.3158 300.816,41.3158 300,46.5C 299.501,41.5111 299.334,36.5111 299.5,31.5 Z"/></g>
<g><path style="opacity:0.007" fill="#000000" d="M 320.5,32.5 C 320.56,31.9569 320.893,31.6236 321.5,31.5C 322.652,34.1062 322.818,36.7728 322,39.5C 321.814,36.9644 321.314,34.631 320.5,32.5 Z"/></g>
<g><path style="opacity:0.999" fill="#e39f37" d="M 450.5,30.5 C 452.535,32.1262 454.869,34.1262 457.5,36.5C 456.167,36.8333 456.167,37.1667 457.5,37.5C 457.328,38.4916 457.662,39.1583 458.5,39.5C 458.36,41.1238 459.027,42.2904 460.5,43C 459.62,44.3561 459.286,45.8561 459.5,47.5C 456.289,47.012 453.456,47.6787 451,49.5C 449.236,47.6107 447.736,45.6107 446.5,43.5C 446.167,42.5 445.5,41.8333 444.5,41.5C 442.393,42.0336 440.393,41.367 438.5,39.5C 436.578,39.8008 434.912,40.4675 433.5,41.5C 432.833,41.5 432.5,41.8333 432.5,42.5C 431.387,43.9464 431.22,45.6131 432,47.5C 432.414,47.0426 432.914,46.7093 433.5,46.5C 434.735,47.3398 435.735,48.3398 436.5,49.5C 439.084,51.4725 442.084,52.4725 445.5,52.5C 446.93,52.5792 448.264,52.2458 449.5,51.5C 450.696,51.8457 450.696,52.3457 449.5,53C 450.549,53.4922 451.549,53.3256 452.5,52.5C 453.739,52.9424 454.739,53.6091 455.5,54.5C 454.167,54.8333 454.167,55.1667 455.5,55.5C 458.666,57.154 460.333,59.8206 460.5,63.5C 460.5,66.1667 460.5,68.8333 460.5,71.5C 460.328,72.4916 460.662,73.1583 461.5,73.5C 461.218,74.7777 460.551,75.7777 459.5,76.5C 458.833,76.5 458.5,76.8333 458.5,77.5C 457.5,78.8333 456.5,80.1667 455.5,81.5C 455.167,80.1667 454.833,80.1667 454.5,81.5C 454.167,81.5 453.833,81.5 453.5,81.5C 445.862,82.3131 438.196,82.6464 430.5,82.5C 429.5,82.5 428.5,82.5 427.5,82.5C 427.167,81.1667 426.833,81.1667 426.5,82.5C 423.756,79.8453 421.756,77.1787 420.5,74.5C 420.5,71.8333 420.5,69.1667 420.5,66.5C 423.833,66.5 427.167,66.5 430.5,66.5C 431.328,68.609 432.495,70.609 434,72.5C 435.84,71.1669 436.34,71.3335 435.5,73C 436.549,73.4922 437.549,73.3256 438.5,72.5C 440.438,75.0789 442.271,75.0789 444,72.5C 444.671,73.2524 445.504,73.5858 446.5,73.5C 447.167,73.5 447.5,73.1667 447.5,72.5C 448.167,72.5 448.5,72.1667 448.5,71.5C 449.167,71.5 449.5,71.1667 449.5,70.5C 449.5,69.5 449.5,68.5 449.5,67.5C 446.488,64.6592 443.154,62.9925 439.5,62.5C 437.971,62.5288 436.804,63.1955 436,64.5C 435.383,63.5509 435.549,62.7175 436.5,62C 435.551,61.3828 434.718,61.5494 434,62.5C 433.29,61.0267 432.124,60.3601 430.5,60.5C 429.791,59.596 428.791,59.2627 427.5,59.5C 426.833,58.1667 426.167,58.1667 425.5,59.5C 424.076,57.8557 422.409,56.3557 420.5,55C 421.28,53.927 421.113,52.7604 420,51.5C 419.346,52.6956 418.846,52.6956 418.5,51.5C 419.806,47.6354 419.806,43.8021 418.5,40C 420.414,38.0169 422.748,35.6836 425.5,33C 426.745,32.2086 428.078,31.7086 429.5,31.5C 434.805,30.8058 440.138,30.4724 445.5,30.5C 447.369,29.955 449.036,29.955 450.5,30.5 Z"/></g>
<g><path style="opacity:0.992" fill="#0c699e" d="M 310.5,31.5 C 311.479,33.1454 312.812,34.4787 314.5,35.5C 313.626,37.7466 313.292,40.0799 313.5,42.5C 315.5,42.5 317.5,42.5 319.5,42.5C 319.5,43.8333 319.5,45.1667 319.5,46.5C 318.662,46.8417 318.328,47.5084 318.5,48.5C 318.167,49.1667 317.833,49.8333 317.5,50.5C 316.167,50.8333 316.167,51.1667 317.5,51.5C 316.687,52.6527 315.687,52.6527 314.5,51.5C 313.335,58.8107 313.169,66.144 314,73.5C 315.628,72.9034 317.295,73.2367 319,74.5C 319.667,77.5 319.667,80.5 319,83.5C 314.069,84.8479 309.236,84.5145 304.5,82.5C 303.781,80.6827 302.781,80.0161 301.5,80.5C 301.536,64.3457 301.536,48.0123 301.5,31.5C 304.5,31.5 307.5,31.5 310.5,31.5 Z"/></g>
<g><path style="opacity:0.996" fill="#106da3" d="M 87.5,31.5 C 88.6597,32.6114 89.993,33.6114 91.5,34.5C 90.019,35.944 90.3523,36.6106 92.5,36.5C 92.8417,37.3382 93.5084,37.6716 94.5,37.5C 95.1894,38.7736 96.0228,38.7736 97,37.5C 98.0539,39.7536 99.5539,40.087 101.5,38.5C 102.696,38.8457 102.696,39.3457 101.5,40C 102.449,40.6172 103.282,40.4506 104,39.5C 104.924,41.4951 106.09,41.8284 107.5,40.5C 108.239,40.369 108.906,40.5357 109.5,41C 108.304,41.6543 108.304,42.1543 109.5,42.5C 111.316,41.2651 112.983,41.2651 114.5,42.5C 110.5,42.8333 110.5,43.1667 114.5,43.5C 115.167,44.8333 115.833,44.8333 116.5,43.5C 117.222,44.5511 118.222,45.2178 119.5,45.5C 120.953,45.9293 122.619,46.096 124.5,46C 125.634,47.016 125.301,47.6827 123.5,48C 125.23,49.8524 126.396,49.6857 127,47.5C 128.786,50.7995 130.953,53.7995 133.5,56.5C 132.167,56.8333 132.167,57.1667 133.5,57.5C 134.551,58.2223 135.218,59.2223 135.5,60.5C 134.167,61.1667 134.167,61.8333 135.5,62.5C 135.5,63.8333 135.5,65.1667 135.5,66.5C 136.551,69.6558 136.551,72.6558 135.5,75.5C 127.545,72.511 119.545,70.511 111.5,69.5C 110.219,66.6536 108.219,65.4869 105.5,66C 106.604,64.8687 106.271,64.0354 104.5,63.5C 103.232,64.4279 101.899,64.5946 100.5,64C 103.167,63.3333 103.167,62.6667 100.5,62C 99.2161,61.3162 98.0495,61.4829 97,62.5C 95.1202,59.9817 92.7868,59.315 90,60.5C 85.5583,57.953 81.3917,55.953 77.5,54.5C 77.1583,53.6618 76.4916,53.3284 75.5,53.5C 75.1583,52.6618 74.4916,52.3284 73.5,52.5C 73.0269,51.0937 72.0269,50.427 70.5,50.5C 68.5,47.8333 66.1667,45.5 63.5,43.5C 63.3718,41.9102 62.7051,40.5769 61.5,39.5C 60.913,40.2334 60.913,41.2334 61.5,42.5C 60.609,41.8902 59.609,41.5569 58.5,41.5C 58.1667,42.1667 57.8333,42.8333 57.5,43.5C 57.1667,43.5 56.8333,43.5 56.5,43.5C 56.238,42.0222 56.5713,40.6888 57.5,39.5C 59.483,39.1852 60.8163,38.1852 61.5,36.5C 62.791,36.7373 63.791,36.404 64.5,35.5C 64.8333,35.5 65.1667,35.5 65.5,35.5C 67.099,35.7678 68.4324,35.4345 69.5,34.5C 69.5,33.8333 69.8333,33.5 70.5,33.5C 71.8333,34.8333 73.1667,34.8333 74.5,33.5C 79.0758,33.5621 83.4091,32.8955 87.5,31.5 Z M 63.5,43.5 C 62.8333,43.1667 62.1667,42.8333 61.5,42.5C 60.913,41.2334 60.913,40.2334 61.5,39.5C 62.7051,40.5769 63.3718,41.9102 63.5,43.5 Z"/></g>
<g><path style="opacity:0.998" fill="#116395" d="M 179.5,30.5 C 182.977,31.3227 186.644,31.8227 190.5,32C 190.957,32.414 191.291,32.914 191.5,33.5C 189.041,35.0503 188.374,37.0503 189.5,39.5C 187.833,42.8333 186.167,46.1667 184.5,49.5C 185.233,50.087 186.233,50.087 187.5,49.5C 187.5,50.1667 187.833,50.5 188.5,50.5C 188.672,51.4916 188.338,52.1583 187.5,52.5C 186.178,52.67 185.011,52.3366 184,51.5C 183.517,52.448 183.351,53.448 183.5,54.5C 182.167,55.1667 182.167,55.8333 183.5,56.5C 183.631,57.2389 183.464,57.9056 183,58.5C 182.346,57.3044 181.846,57.3044 181.5,58.5C 181.931,59.2935 182.265,60.1268 182.5,61C 181.411,63.5844 180.411,66.0844 179.5,68.5C 179.167,65.8333 178.833,65.8333 178.5,68.5C 177.167,69.1667 177.167,69.8333 178.5,70.5C 177.194,71.4674 176.527,72.8007 176.5,74.5C 175.167,75.1667 175.167,75.8333 176.5,76.5C 175.194,77.4674 174.527,78.8007 174.5,80.5C 173.751,81.531 173.085,82.6976 172.5,84C 169.183,84.4983 165.85,84.665 162.5,84.5C 160.739,82.407 159.406,80.0736 158.5,77.5C 159.692,76.4341 159.359,75.6008 157.5,75C 158.774,74.0228 158.774,73.1894 157.5,72.5C 156.009,70.0939 155.176,67.4272 155,64.5C 154.667,65.1667 154.333,65.8333 154,66.5C 153.551,63.868 152.717,61.368 151.5,59C 151.645,58.228 151.978,57.5613 152.5,57C 150.311,56.323 149.978,55.1563 151.5,53.5C 150.446,51.7988 149.446,50.1321 148.5,48.5C 149.692,47.4341 149.359,46.6008 147.5,46C 148.634,44.984 148.301,44.3173 146.5,44C 147.774,43.0228 147.774,42.1894 146.5,41.5C 145.172,39.4015 144.505,37.4015 144.5,35.5C 144.5,34.1667 144.5,32.8333 144.5,31.5C 148.833,31.5 153.167,31.5 157.5,31.5C 158.154,34.6412 159.154,37.6412 160.5,40.5C 160.831,42.3224 161.498,43.9891 162.5,45.5C 161.307,47.8465 161.973,49.8465 164.5,51.5C 163.347,52.6868 163.347,53.6868 164.5,54.5C 165.567,56.7 166.233,58.7 166.5,60.5C 168.55,59.9234 169.55,58.5901 169.5,56.5C 170.653,55.6868 170.653,54.6868 169.5,53.5C 170.687,52.4805 171.687,51.3139 172.5,50C 169.833,49.3333 169.833,48.6667 172.5,48C 171.167,46.1598 171.334,45.6598 173,46.5C 174.398,44.1861 174.565,41.8528 173.5,39.5C 174.612,38.7348 175.279,37.7348 175.5,36.5C 176.219,34.9087 177.219,33.4087 178.5,32C 177.288,30.8932 177.621,30.3932 179.5,30.5 Z M 166.5,62.5 C 167.363,61.537 168.03,61.537 168.5,62.5C 167.279,66.3393 166.612,66.3393 166.5,62.5 Z"/></g>
<g><path style="opacity:0.004" fill="#000000" d="M 158.5,31.5 C 159.525,31.8966 159.692,32.5632 159,33.5C 158.536,32.9056 158.369,32.2389 158.5,31.5 Z"/></g>
<g><path style="opacity:0.993" fill="#116193" d="M 335.5,34.5 C 335.662,36.5273 335.495,38.5273 335,40.5C 334.29,41.9733 333.124,42.6399 331.5,42.5C 329.107,41.79 326.607,41.1233 324,40.5C 323.502,37.5184 323.335,34.5184 323.5,31.5C 326.187,31.6641 328.854,31.4974 331.5,31C 330.304,30.3457 330.304,29.8457 331.5,29.5C 331.764,31.4981 333.097,33.1648 335.5,34.5 Z"/></g>
<g><path style="opacity:0.004" fill="#000000" d="M 335.5,33.5 C 336.833,34.1667 336.833,34.1667 335.5,33.5 Z"/></g>
<g><path style="opacity:0.004" fill="#000000" d="M 7.5,34.5 C 7.83333,34.5 8.16667,34.5 8.5,34.5C 8.31468,35.1701 7.98135,35.1701 7.5,34.5 Z"/></g>
<g><path style="opacity:0.004" fill="#000000" d="M 33.5,34.5 C 34.8333,35.1667 34.8333,35.1667 33.5,34.5 Z"/></g>
<g><path style="opacity:0.004" fill="#000000" d="M 59.5,34.5 C 58.8333,35.1667 58.8333,35.1667 59.5,34.5 Z"/></g>
<g><path style="opacity:0.006" fill="#000000" d="M 175.5,36.5 C 174.475,36.1034 174.308,35.4368 175,34.5C 175.464,35.0944 175.631,35.7611 175.5,36.5 Z"/></g>
<g><path style="opacity:0.004" fill="#000000" d="M 92.5,35.5 C 93.8333,36.1667 93.8333,36.1667 92.5,35.5 Z"/></g>
<g><path style="opacity:0.008" fill="#000000" d="M 144.5,35.5 C 143.833,36.1667 143.833,36.1667 144.5,35.5 Z"/></g>
<g><path style="opacity:0.004" fill="#000000" d="M 60.5,36.5 C 59.8333,37.1667 59.8333,37.1667 60.5,36.5 Z"/></g>
<g><path style="opacity:0.008" fill="#000000" d="M 94.5,36.5 C 95.8333,37.1667 95.8333,37.1667 94.5,36.5 Z"/></g>
<g><path style="opacity:0.004" fill="#000000" d="M 457.5,36.5 C 458.833,37.1667 458.833,37.1667 457.5,36.5 Z"/></g>
<g><path style="opacity:0.004" fill="#000000" d="M 98.5,37.5 C 99.8333,38.1667 99.8333,38.1667 98.5,37.5 Z"/></g>
<g><path style="opacity:0.004" fill="#000000" d="M 459.5,39.5 C 458.833,38.1667 458.833,38.1667 459.5,39.5 Z"/></g>
<g><path style="opacity:0.004" fill="#000000" d="M 10.5,39.5 C 9.83333,40.1667 9.83333,40.1667 10.5,39.5 Z"/></g>
<g><path style="opacity:0.004" fill="#000000" d="M 107.5,40.5 C 106.833,39.1667 106.833,39.1667 107.5,40.5 Z"/></g>
<g><path style="opacity:0.008" fill="#000000" d="M 160.5,39.5 C 161.833,40.1667 161.833,40.1667 160.5,39.5 Z"/></g>
<g><path style="opacity:0.004" fill="#000000" d="M 202.5,40.5 C 203.251,39.4265 204.251,39.2599 205.5,40C 204.552,40.4828 203.552,40.6495 202.5,40.5 Z"/></g>
<g><path style="opacity:0.004" fill="#000000" d="M 241.5,40.5 C 242.251,39.4265 243.251,39.2599 244.5,40C 243.552,40.4828 242.552,40.6495 241.5,40.5 Z"/></g>
<g><path style="opacity:0.004" fill="#000000" d="M 279.5,40.5 C 280.251,39.4265 281.251,39.2599 282.5,40C 281.552,40.4828 280.552,40.6495 279.5,40.5 Z"/></g>
<g><path style="opacity:0.004" fill="#000000" d="M 355.5,40.5 C 356.601,39.4017 357.934,39.235 359.5,40C 358.207,40.49 356.873,40.6567 355.5,40.5 Z"/></g>
<g><path style="opacity:0.004" fill="#000000" d="M 396.5,40.5 C 396.897,39.475 397.563,39.3083 398.5,40C 397.906,40.4643 397.239,40.631 396.5,40.5 Z"/></g>
<g><path style="opacity:0.004" fill="#000000" d="M 459.5,39.5 C 460.525,39.8966 460.692,40.5632 460,41.5C 459.536,40.9056 459.369,40.2389 459.5,39.5 Z"/></g>
<g><path style="opacity:0.004" fill="#000000" d="M 479.5,40.5 C 480.251,39.4265 481.251,39.2599 482.5,40C 481.552,40.4828 480.552,40.6495 479.5,40.5 Z"/></g>
<g><path style="opacity:0.004" fill="#000000" d="M 553.5,40.5 C 553.897,39.475 554.563,39.3083 555.5,40C 554.906,40.4643 554.239,40.631 553.5,40.5 Z"/></g>
<g><path style="opacity:0.004" fill="#000000" d="M 616.5,40.5 C 617.251,39.4265 618.251,39.2599 619.5,40C 618.552,40.4828 617.552,40.6495 616.5,40.5 Z"/></g>
<g><path style="opacity:0.005" fill="#000000" d="M 116.5,43.5 C 115.833,43.5 115.167,43.5 114.5,43.5C 114.5,43.1667 114.5,42.8333 114.5,42.5C 115.925,40.9689 116.591,41.3023 116.5,43.5 Z"/></g>
<g><path style="opacity:0.004" fill="#000000" d="M 146.5,41.5 C 145.833,42.1667 145.833,42.1667 146.5,41.5 Z"/></g>
<g><path style="opacity:0.008" fill="#000000" d="M 172.5,41.5 C 173.833,42.1667 173.833,42.1667 172.5,41.5 Z"/></g>
<g><path style="opacity:0.035" fill="#102132" d="M 408.5,43.5 C 407.833,43.5 407.5,43.8333 407.5,44.5C 404.175,43.8405 400.842,43.1738 397.5,42.5C 394.824,42.837 392.157,43.1703 389.5,43.5C 388.448,41.3449 389.114,41.0116 391.5,42.5C 391.833,41.8333 392.167,41.1667 392.5,40.5C 395.66,42.1565 398.494,41.8232 401,39.5C 403.769,40.4657 406.269,41.799 408.5,43.5 Z"/></g>
<g><path style="opacity:0.004" fill="#000000" d="M 417.5,41.5 C 418.573,42.2506 418.74,43.2506 418,44.5C 417.517,43.552 417.351,42.552 417.5,41.5 Z"/></g>
<g><path style="opacity:0.005" fill="#000000" d="M 433.5,41.5 C 434.043,41.56 434.376,41.8933 434.5,42.5C 433.743,43.7733 433.077,43.7733 432.5,42.5C 433.167,42.5 433.5,42.1667 433.5,41.5 Z"/></g>
<g><path style="opacity:0.004" fill="#000000" d="M 444.5,41.5 C 443.833,42.1667 443.833,42.1667 444.5,41.5 Z"/></g>
<g><path style="opacity:0.176" fill="#2e2213" d="M 487.5,42.5 C 483.5,42.5 479.5,42.5 475.5,42.5C 474.537,41.6365 474.537,40.9698 475.5,40.5C 479.5,41.8333 483.5,41.8333 487.5,40.5C 488.463,40.9698 488.463,41.6365 487.5,42.5 Z"/></g>
<g><path style="opacity:0.212" fill="#412f16" d="M 559.5,42.5 C 555.131,42.4672 550.798,42.8005 546.5,43.5C 546.389,41.3523 547.056,41.019 548.5,42.5C 548.833,41.8333 549.167,41.1667 549.5,40.5C 552.833,41.8333 556.167,41.8333 559.5,40.5C 560.463,40.9698 560.463,41.6365 559.5,42.5 Z"/></g>
<g><path style="opacity:0.004" fill="#000000" d="M 589.5,41.5 C 590.833,42.1667 590.833,42.1667 589.5,41.5 Z"/></g>
<g><path style="opacity:0.298" fill="#523c1a" d="M 628.5,43.5 C 628.5,43.8333 628.5,44.1667 628.5,44.5C 622.271,42.3269 615.938,41.9936 609.5,43.5C 609.418,41.7483 610.251,40.7483 612,40.5C 615.847,41.7992 619.68,41.7992 623.5,40.5C 624.696,40.8457 624.696,41.3457 623.5,42C 624.449,42.6172 625.282,42.4506 626,41.5C 626.417,42.756 627.25,43.4226 628.5,43.5 Z"/></g>
<g><path style="opacity:0.013" fill="#020707" d="M 18.5,42.5 C 19.1667,42.5 19.5,42.8333 19.5,43.5C 19.1667,44.1667 18.8333,44.8333 18.5,45.5C 16.302,45.1201 14.6354,45.7868 13.5,47.5C 12.475,47.1034 12.3083,46.4368 13,45.5C 14.7189,44.1312 16.5522,43.1312 18.5,42.5 Z"/></g>
<g><path style="opacity:0.994" fill="#40a7eb" d="M 58.5,41.5 C 59.609,41.5569 60.609,41.8902 61.5,42.5C 62.1667,42.8333 62.8333,43.1667 63.5,43.5C 64.8333,46.8333 67.1667,49.1667 70.5,50.5C 70.9731,51.9063 71.9731,52.573 73.5,52.5C 73.8417,53.3382 74.5084,53.6716 75.5,53.5C 75.8417,54.3382 76.5084,54.6716 77.5,54.5C 77.2634,57.6473 76.4301,60.6473 75,63.5C 74.0164,61.2053 73.1831,61.5386 72.5,64.5C 72.7093,65.086 73.0426,65.586 73.5,66C 72.244,66.4169 71.5774,67.2502 71.5,68.5C 70.1667,69.1667 70.1667,69.8333 71.5,70.5C 70.2704,70.9745 69.2704,72.3078 68.5,74.5C 69.2427,75.1818 69.9094,75.8485 70.5,76.5C 69.8333,76.5 69.1667,76.5 68.5,76.5C 67.1667,76.8333 67.1667,77.1667 68.5,77.5C 68.5,78.1667 68.1667,78.5 67.5,78.5C 66.1667,79.1667 66.1667,79.8333 67.5,80.5C 67.5,81.1667 67.1667,81.5 66.5,81.5C 65.1667,81.8333 65.1667,82.1667 66.5,82.5C 66.5,83.1667 66.1667,83.5 65.5,83.5C 64.6618,83.8417 64.3284,84.5084 64.5,85.5C 63.6618,85.8417 63.3284,86.5084 63.5,87.5C 63.1667,87.5 62.8333,87.5 62.5,87.5C 53.1435,86.0411 43.6435,85.0411 34,84.5C 33.3292,85.2524 32.4959,85.5858 31.5,85.5C 30.5313,84.6906 29.6979,83.6906 29,82.5C 28.6667,82.8333 28.3333,83.1667 28,83.5C 29.0133,79.7123 27.5133,77.2123 23.5,76C 24.2714,74.0021 23.6048,72.3354 21.5,71C 22.4239,70.15 22.4239,69.15 21.5,68C 21.8361,66.9701 22.5028,66.4701 23.5,66.5C 24.1667,66.5 24.8333,66.5 25.5,66.5C 30.1667,66.5 34.8333,66.5 39.5,66.5C 41.1172,65.962 42.7839,65.6287 44.5,65.5C 45.2389,65.369 45.9056,65.5357 46.5,66C 45.5494,66.7175 45.3828,67.5509 46,68.5C 48.3354,66.8326 50.1687,64.9993 51.5,63C 50.6919,62.6924 50.0253,62.1924 49.5,61.5C 51.8653,59.1238 53.532,56.1238 54.5,52.5C 54.3764,51.8933 54.0431,51.56 53.5,51.5C 53.369,50.7611 53.5357,50.0944 54,49.5C 54.6543,50.6956 55.1543,50.6956 55.5,49.5C 55.542,48.1457 55.542,46.8123 55.5,45.5C 55.3284,44.5084 55.6618,43.8417 56.5,43.5C 56.8333,44.8333 57.1667,44.8333 57.5,43.5C 57.8333,42.8333 58.1667,42.1667 58.5,41.5 Z"/></g>
<g><path style="opacity:0.996" fill="#116294" d="M 223.5,70.5 C 223.179,72.0481 222.179,72.7148 220.5,72.5C 220.33,73.8221 220.663,74.9887 221.5,76C 220.747,77.487 219.914,77.6537 219,76.5C 217.513,77.2529 217.346,78.0862 218.5,79C 217.263,79.2321 216.263,79.7321 215.5,80.5C 214.833,80.5 214.5,80.8333 214.5,81.5C 213.508,81.3284 212.842,81.6618 212.5,82.5C 211.508,82.3284 210.842,82.6618 210.5,83.5C 209.027,84.0715 207.36,84.0715 205.5,83.5C 202.833,83.5 200.167,83.5 197.5,83.5C 195.863,84.2178 194.197,84.3845 192.5,84C 193.167,83.6667 193.833,83.3333 194.5,83C 190.64,81.4208 187.64,78.9208 185.5,75.5C 186.833,72.5 186.833,69.5 185.5,66.5C 188.058,62.7104 191.058,60.2104 194.5,59C 193.833,58.6667 193.167,58.3333 192.5,58C 194.081,57.2935 195.581,56.4601 197,55.5C 197.333,56.5 197.667,57.5 198,58.5C 199.734,57.7511 201.567,57.2511 203.5,57C 202.112,56.1107 202.278,55.6107 204,55.5C 205.677,56.6078 207.177,56.6078 208.5,55.5C 206.16,54.3877 204.66,53.0543 204,51.5C 202.989,51.8919 202.489,52.5585 202.5,53.5C 201.466,50.8753 200.466,50.8753 199.5,53.5C 195.116,55.1753 191.116,54.8419 187.5,52.5C 188.338,52.1583 188.672,51.4916 188.5,50.5C 187.833,50.5 187.5,50.1667 187.5,49.5C 189.265,48.2752 191.265,46.4419 193.5,44C 192.549,43.2825 192.383,42.4491 193,41.5C 194.399,41.5012 195.899,41.8346 197.5,42.5C 197.833,41.8333 198.167,41.1667 198.5,40.5C 202.32,41.7992 206.153,41.7992 210,40.5C 211.011,40.8919 211.511,41.5585 211.5,42.5C 213.167,41.1667 214.833,41.1667 216.5,42.5C 219.032,45.2426 221.032,47.9093 222.5,50.5C 221.87,53.9469 221.537,57.4469 221.5,61C 221.515,64.5758 222.182,67.7425 223.5,70.5 Z M 208.5,55.5 C 207.438,54.4246 207.438,53.4246 208.5,52.5C 209.776,53.6136 209.776,54.6136 208.5,55.5 Z M 208.5,70.5 C 207.874,71.5289 207.041,72.5289 206,73.5C 204.012,74.2959 201.846,74.2959 199.5,73.5C 204.833,73.1667 204.833,72.8333 199.5,72.5C 199.5,71.1667 199.5,69.8333 199.5,68.5C 200.492,68.6716 201.158,68.3382 201.5,67.5C 202.88,66.2935 204.047,66.6269 205,68.5C 204.387,64.9047 205.554,64.5713 208.5,67.5C 209.653,68.6868 209.653,69.6868 208.5,70.5 Z"/></g>
<g><path style="opacity:0.997" fill="#126192" d="M 252.5,42.5 C 249.833,42.8333 249.833,43.1667 252.5,43.5C 253.29,44.4013 254.29,45.0679 255.5,45.5C 255.833,46.5 256.5,47.1667 257.5,47.5C 258.167,48.1667 258.833,48.8333 259.5,49.5C 258.167,49.8333 258.167,50.1667 259.5,50.5C 260.551,51.2223 261.218,52.2223 261.5,53.5C 260.596,54.209 260.263,55.209 260.5,56.5C 256.563,56.2065 252.73,56.5399 249,57.5C 248.667,56.5 248.333,55.5 248,54.5C 246.927,55.2797 245.76,55.113 244.5,54C 245.167,53.6667 245.833,53.3333 246.5,53C 245.391,52.3623 244.225,51.8623 243,51.5C 241.832,52.5089 240.665,53.5089 239.5,54.5C 238.056,53.019 237.389,53.3523 237.5,55.5C 236.566,56.5676 236.232,57.901 236.5,59.5C 235.167,61.5 235.167,63.5 236.5,65.5C 236.343,66.8734 236.51,68.2068 237,69.5C 238.666,68.6598 238.833,69.1598 237.5,71C 239.074,71.3357 240.408,72.1691 241.5,73.5C 247.153,70.4029 253.487,69.0695 260.5,69.5C 260.343,70.8734 260.51,72.2068 261,73.5C 261.333,72.8333 261.667,72.1667 262,71.5C 262.278,72.4158 262.778,73.0825 263.5,73.5C 264.338,73.8417 264.672,74.5084 264.5,75.5C 262.863,74.7822 261.197,74.6155 259.5,75C 258.167,75.6667 258.167,76.3333 259.5,77C 257.313,78.025 255.646,79.525 254.5,81.5C 254.167,80.1667 253.833,80.1667 253.5,81.5C 252.167,81.8333 252.167,82.1667 253.5,82.5C 253.158,83.3382 252.492,83.6716 251.5,83.5C 250.036,84.045 248.369,84.045 246.5,83.5C 244.167,83.5 241.833,83.5 239.5,83.5C 238.5,83.5 237.5,83.5 236.5,83.5C 235.833,82.1667 235.167,82.1667 234.5,83.5C 232.205,81.4519 229.372,79.1186 226,76.5C 226.633,74.0745 225.8,72.0745 223.5,70.5C 223.804,69.8501 224.137,69.1835 224.5,68.5C 224.154,67.3044 223.654,67.3044 223,68.5C 222.833,67.6667 222.667,66.8333 222.5,66C 222.51,61.6977 222.51,57.3644 222.5,53C 224.935,50.0902 227.601,47.5902 230.5,45.5C 232.508,44.6993 233.008,43.366 232,41.5C 233.399,41.5012 234.899,41.8346 236.5,42.5C 236.833,41.8333 237.167,41.1667 237.5,40.5C 240.833,41.8333 244.167,41.8333 247.5,40.5C 247.833,41.1667 248.167,41.8333 248.5,42.5C 249.995,41.2947 251.328,41.2947 252.5,42.5 Z"/></g>
<g><path style="opacity:0.008" fill="#000000" d="M 252.5,42.5 C 253.833,43.1667 253.833,43.1667 252.5,42.5 Z"/></g>
<g><path style="opacity:0.008" fill="#000000" d="M 292.5,42.5 C 293.833,43.1667 293.833,43.1667 292.5,42.5 Z"/></g>
<g><path style="opacity:0.004" fill="#000000" d="M 564.5,42.5 C 565.833,43.1667 565.833,43.1667 564.5,42.5 Z"/></g>
<g><path style="opacity:0.008" fill="#000000" d="M 588.5,43.5 C 587.833,42.1667 587.833,42.1667 588.5,43.5 Z"/></g>
<g><path style="opacity:0.004" fill="#000000" d="M 628.5,42.5 C 629.833,43.1667 629.833,43.1667 628.5,42.5 Z"/></g>
<g><path style="opacity:0.004" fill="#000000" d="M 119.5,44.5 C 118.833,43.1667 118.833,43.1667 119.5,44.5 Z"/></g>
<g><path style="opacity:0.004" fill="#000000" d="M 255.5,45.5 C 255.369,44.7611 255.536,44.0944 256,43.5C 256.692,44.4368 256.525,45.1034 255.5,45.5 Z"/></g>
<g><path style="opacity:0.994" fill="#126293" d="M 292.5,43.5 C 294.103,44.5964 295.603,45.9297 297,47.5C 298.107,46.2881 298.607,46.6214 298.5,48.5C 297.167,49.1667 297.167,49.8333 298.5,50.5C 298.562,58.2261 298.395,65.8928 298,73.5C 298.419,72.3279 299.085,71.3279 300,70.5C 300.494,72.1341 300.66,73.8008 300.5,75.5C 298.901,75.2322 297.568,75.5655 296.5,76.5C 295.833,76.5 295.5,76.8333 295.5,77.5C 294.398,80.964 292.065,83.2974 288.5,84.5C 286.47,84.1064 284.137,83.7731 281.5,83.5C 279.167,83.5 276.833,83.5 274.5,83.5C 273.417,83.5394 272.417,83.8728 271.5,84.5C 270.207,82.7826 268.374,81.1159 266,79.5C 265.667,79.8333 265.333,80.1667 265,80.5C 265.771,78.82 265.605,77.1533 264.5,75.5C 264.672,74.5084 264.338,73.8417 263.5,73.5C 263.123,70.4752 262.956,67.4752 263,64.5C 263.333,64.8333 263.667,65.1667 264,65.5C 265.046,63.9095 266.213,62.4095 267.5,61C 266.66,59.3335 267.16,59.1669 269,60.5C 271.734,59.6383 271.901,58.805 269.5,58C 271.452,57.6339 273.118,56.8005 274.5,55.5C 271.375,54.5206 268.042,54.1872 264.5,54.5C 265.138,52.54 265.138,50.7067 264.5,49C 265.942,48.6232 266.942,47.7899 267.5,46.5C 268.167,46.5 268.5,46.1667 268.5,45.5C 269.79,44.9423 270.623,43.9423 271,42.5C 272.016,43.6341 272.683,43.3008 273,41.5C 273.718,42.4506 274.551,42.6172 275.5,42C 274.304,41.3457 274.304,40.8457 275.5,40.5C 279.296,42.1637 282.796,41.8304 286,39.5C 286.75,40.1258 287.584,40.6258 288.5,41C 287.66,42.6665 288.16,42.8331 290,41.5C 290.417,42.756 291.25,43.4226 292.5,43.5 Z M 284.5,52.5 C 283.448,52.3505 282.448,52.5172 281.5,53C 282.736,54.0848 284.069,54.9181 285.5,55.5C 284.328,56.7053 282.995,56.7053 281.5,55.5C 279.533,56.9529 277.367,57.9529 275,58.5C 274.517,57.552 274.351,56.552 274.5,55.5C 276.068,56.4731 277.735,56.6397 279.5,56C 277.956,55.7104 276.623,55.0437 275.5,54C 276.044,53.2828 276.711,52.7828 277.5,52.5C 278.98,51.7409 281.313,51.7409 284.5,52.5 Z M 285.5,69.5 C 284.034,70.347 283.2,71.6803 283,73.5C 282.667,73.1667 282.333,72.8333 282,72.5C 279.774,75.0814 277.608,75.0814 275.5,72.5C 276.167,72.5 276.833,72.5 277.5,72.5C 276.048,70.2258 276.715,68.7258 279.5,68C 278.833,67.6667 278.167,67.3333 277.5,67C 278.899,66.4054 280.232,66.5721 281.5,67.5C 282.696,67.1543 282.696,66.6543 281.5,66C 282.672,65.6466 283.838,65.8132 285,66.5C 286.762,66.0556 286.595,65.5556 284.5,65C 285.448,64.5172 286.448,64.3505 287.5,64.5C 287.169,66.3224 286.502,67.9891 285.5,69.5 Z"/></g>
<g><path style="opacity:0.007" fill="#000101" d="M 318.5,48.5 C 318.328,47.5084 318.662,46.8417 319.5,46.5C 320.931,46.1193 321.764,45.1193 322,43.5C 322.667,56.5 322.667,69.5 322,82.5C 321.774,79.905 321.274,77.405 320.5,75C 321.817,65.8933 321.817,56.7266 320.5,47.5C 319.817,47.8627 319.15,48.1961 318.5,48.5 Z"/></g>
<g><path style="opacity:0.991" fill="#0b6fa8" d="M 331.5,42.5 C 332.52,43.9538 333.687,44.2871 335,43.5C 335.47,44.5768 335.303,45.5768 334.5,46.5C 334.5,58.5 334.5,70.5 334.5,82.5C 330.833,82.5 327.167,82.5 323.5,82.5C 323.5,69.1667 323.5,55.8333 323.5,42.5C 326.167,42.5 328.833,42.5 331.5,42.5 Z"/></g>
<g><path style="opacity:0.997" fill="#126395" d="M 373.5,49.5 C 373.709,50.9217 374.209,52.255 375,53.5C 375.333,52.8333 375.667,52.1667 376,51.5C 376.49,52.7932 376.657,54.1266 376.5,55.5C 375.662,55.8417 375.328,56.5084 375.5,57.5C 375.5,61.1667 375.5,64.8333 375.5,68.5C 375.721,69.7348 376.388,70.7348 377.5,71.5C 376.603,71.6691 375.603,72.0024 374.5,72.5C 375.782,74.8994 375.115,76.5661 372.5,77.5C 371.833,77.5 371.5,77.8333 371.5,78.5C 370.833,78.5 370.5,78.8333 370.5,79.5C 369.833,79.5 369.5,79.8333 369.5,80.5C 368.29,80.9321 367.29,81.5987 366.5,82.5C 362.5,82.8333 362.5,83.1667 366.5,83.5C 364.983,84.7349 363.316,84.7349 361.5,83.5C 359.119,85.3925 356.453,85.8925 353.5,85C 354.696,84.3457 354.696,83.8457 353.5,83.5C 352.232,84.4279 350.899,84.5946 349.5,84C 351.932,82.9125 351.598,82.4125 348.5,82.5C 348.158,81.6618 347.492,81.3284 346.5,81.5C 344.833,79.8333 343.167,78.1667 341.5,76.5C 341.167,75.1667 340.833,75.1667 340.5,76.5C 339.226,75.8106 339.226,74.9772 340.5,74C 339.333,73.5 338.5,72.6667 338,71.5C 337.667,71.8333 337.333,72.1667 337,72.5C 336.517,71.552 336.351,70.552 336.5,69.5C 337.675,69.719 338.675,69.3857 339.5,68.5C 338.194,64.6354 338.194,60.8021 339.5,57C 338.552,56.5172 337.552,56.3505 336.5,56.5C 339.193,53.5655 341.193,50.5655 342.5,47.5C 344.532,46.4391 345.866,44.7724 346.5,42.5C 348.224,43.6613 349.89,43.4947 351.5,42C 351.167,41.6667 350.833,41.3333 350.5,41C 354.661,41.701 358.827,41.5343 363,40.5C 364.893,41.1963 366.726,42.0296 368.5,43C 368.167,43.3333 367.833,43.6667 367.5,44C 369.37,46.0396 371.37,47.8729 373.5,49.5 Z M 359.5,53.5 C 359.833,54.5 360.5,55.1667 361.5,55.5C 361.328,56.4916 361.662,57.1583 362.5,57.5C 362.457,61.8926 362.957,62.2259 364,58.5C 364.667,60.8333 364.667,63.1667 364,65.5C 363.237,62.9365 362.737,62.9365 362.5,65.5C 362.543,66.4164 362.876,67.0831 363.5,67.5C 363.737,68.791 363.404,69.791 362.5,70.5C 362.167,67.8333 361.833,67.8333 361.5,70.5C 359.451,70.7058 359.117,71.5391 360.5,73C 359.234,73.3095 358.067,73.8095 357,74.5C 355.255,73.6319 353.755,71.9653 352.5,69.5C 352.096,68.2436 351.429,67.0769 350.5,66C 351.773,63.4838 351.773,60.9838 350.5,58.5C 351.262,58.0894 352.262,57.9227 353.5,58C 351.689,56.9593 351.355,55.7927 352.5,54.5C 352.435,54.9382 352.601,55.2716 353,55.5C 355.665,54.526 355.831,53.8593 353.5,53.5C 355.678,51.3528 357.678,51.3528 359.5,53.5 Z"/></g>
<g><path style="opacity:0.998" fill="#0e6ca2" d="M 407.5,44.5 C 408.167,44.5 408.5,44.1667 408.5,43.5C 410.179,43.2852 411.179,43.9519 411.5,45.5C 410.167,45.8333 410.167,46.1667 411.5,46.5C 411.5,47.1667 411.833,47.5 412.5,47.5C 415.364,48.7579 416.03,50.7579 414.5,53.5C 414.5,63.1667 414.5,72.8333 414.5,82.5C 412.167,82.5 409.833,82.5 407.5,82.5C 406.06,81.6371 404.726,81.6371 403.5,82.5C 402.614,81.675 402.281,80.675 402.5,79.5C 403.492,71.6841 403.826,63.6841 403.5,55.5C 403.5,54.8333 403.167,54.5 402.5,54.5C 402.189,53.5222 401.522,52.8555 400.5,52.5C 397.724,52.946 395.224,53.946 393,55.5C 392.667,55.1667 392.333,54.8333 392,54.5C 391.517,55.448 391.351,56.448 391.5,57.5C 390.507,65.6499 390.174,73.9832 390.5,82.5C 386.833,82.5 383.167,82.5 379.5,82.5C 379.577,71.7131 379.577,61.0464 379.5,50.5C 380.243,49.8182 380.909,49.1515 381.5,48.5C 383.791,47.4579 384.791,45.9579 384.5,44C 386.18,44.7712 387.847,44.6045 389.5,43.5C 392.157,43.1703 394.824,42.837 397.5,42.5C 400.842,43.1738 404.175,43.8405 407.5,44.5 Z"/></g>
<g><path style="opacity:0.004" fill="#000000" d="M 446.5,43.5 C 445.833,44.1667 445.833,44.1667 446.5,43.5 Z"/></g>
<g><path style="opacity:0.999" fill="#e29e37" d="M 475.5,42.5 C 479.5,42.5 483.5,42.5 487.5,42.5C 489.54,41.4808 491.54,41.4808 493.5,42.5C 493.291,43.086 492.957,43.586 492.5,44C 494.324,44.66 495.657,45.8267 496.5,47.5C 496.5,48.1667 496.833,48.5 497.5,48.5C 497.5,49.1667 497.833,49.5 498.5,49.5C 498.5,57.1667 498.5,64.8333 498.5,72.5C 497.167,73.1667 497.167,73.8333 498.5,74.5C 496.581,76.8201 494.581,79.1534 492.5,81.5C 492.167,80.1667 491.833,80.1667 491.5,81.5C 490.167,81.8333 490.167,82.1667 491.5,82.5C 490.504,83.6651 489.171,84.3318 487.5,84.5C 485.865,83.9537 484.199,83.6204 482.5,83.5C 480.167,83.5 477.833,83.5 475.5,83.5C 474.5,83.5 473.5,83.5 472.5,83.5C 472.158,82.6618 471.492,82.3284 470.5,82.5C 470.5,81.8333 470.167,81.5 469.5,81.5C 468.603,80.4019 467.77,80.4019 467,81.5C 465.351,80.1155 464.184,78.4488 463.5,76.5C 464.338,76.1583 464.672,75.4916 464.5,74.5C 464.5,72.1667 464.5,69.8333 464.5,67.5C 464.489,65.9826 463.823,64.8159 462.5,64C 466.884,62.275 470.217,60.1083 472.5,57.5C 473.5,58.8333 474.5,58.8333 475.5,57.5C 477.821,57.7711 479.821,57.1045 481.5,55.5C 483.945,56.9654 485.945,56.4654 487.5,54C 486.107,51.3167 484.774,51.15 483.5,53.5C 482.304,53.1543 482.304,52.6543 483.5,52C 481.866,51.5065 480.199,51.3398 478.5,51.5C 477.833,51.5 477.5,51.8333 477.5,52.5C 476.833,52.5 476.5,52.8333 476.5,53.5C 473.167,53.5 469.833,53.5 466.5,53.5C 466.5,51.8333 466.5,50.1667 466.5,48.5C 468.004,46.1644 470.004,44.331 472.5,43C 472.167,42.6667 471.833,42.3333 471.5,42C 472.819,41.805 474.153,41.9717 475.5,42.5 Z M 485.5,71.5 C 485.44,70.9569 485.107,70.6236 484.5,70.5C 483.227,71.2565 483.227,71.9232 484.5,72.5C 482.562,74.1628 480.228,74.8294 477.5,74.5C 478.609,73.71 479.942,73.21 481.5,73C 479.899,72.7266 478.399,72.2266 477,71.5C 476.536,72.0944 476.369,72.7611 476.5,73.5C 475.853,72.7261 475.52,71.7261 475.5,70.5C 476.182,69.1833 476.849,67.8499 477.5,66.5C 478.93,66.4208 480.264,66.7542 481.5,67.5C 482.696,67.1543 482.696,66.6543 481.5,66C 482.549,65.5078 483.549,65.6744 484.5,66.5C 485.696,66.1543 485.696,65.6543 484.5,65C 485.448,64.5172 486.448,64.3505 487.5,64.5C 487.59,67.1522 486.924,69.4855 485.5,71.5 Z"/></g>
<g><path style="opacity:0.999" fill="#db9a36" d="M 537.5,46.5 C 536.167,47.1667 536.167,47.8333 537.5,48.5C 537.328,49.4916 537.662,50.1583 538.5,50.5C 537.71,57.4707 537.377,64.4707 537.5,71.5C 536.566,70.4324 536.232,69.099 536.5,67.5C 536.5,64.5 536.5,61.5 536.5,58.5C 536.5,57.1667 536.5,55.8333 536.5,54.5C 537.043,54.44 537.376,54.1067 537.5,53.5C 536.5,48.1667 535.5,48.1667 534.5,53.5C 534.624,54.1067 534.957,54.44 535.5,54.5C 534.27,54.9745 533.27,56.3078 532.5,58.5C 532.624,59.1067 532.957,59.44 533.5,59.5C 533.5,60.1667 533.5,60.8333 533.5,61.5C 532.167,61.5 531.5,62.1667 531.5,63.5C 530.167,64.1667 530.167,64.8333 531.5,65.5C 530.833,66.8333 530.167,68.1667 529.5,69.5C 529.758,72.2239 529.092,74.2239 527.5,75.5C 526.226,76.1894 526.226,77.0228 527.5,78C 526.833,78.3333 526.167,78.6667 525.5,79C 526.517,80.0495 526.684,81.2161 526,82.5C 525.221,79.9028 524.721,79.9028 524.5,82.5C 520.5,82.5 516.5,82.5 512.5,82.5C 511.732,81.7375 511.232,80.7375 511,79.5C 510.346,80.6956 509.846,80.6956 509.5,79.5C 510.722,77.0914 510.055,75.258 507.5,74C 508.774,73.0228 508.774,72.1894 507.5,71.5C 507.5,70.5 507.5,69.5 507.5,68.5C 507.5,67.8333 507.167,67.5 506.5,67.5C 506.672,66.5084 506.338,65.8417 505.5,65.5C 503.568,63.6744 502.901,61.6744 503.5,59.5C 503.5,58.1667 502.833,57.5 501.5,57.5C 502.833,55.5 502.833,53.5 501.5,51.5C 501.5,50.8333 501.167,50.5 500.5,50.5C 500.5,49.8333 500.5,49.1667 500.5,48.5C 500.675,46.3792 500.341,44.3792 499.5,42.5C 503.884,42.1744 508.217,42.5078 512.5,43.5C 511.347,44.6868 511.347,45.6868 512.5,46.5C 512.48,48.143 513.147,49.4763 514.5,50.5C 513.098,51.8425 513.431,52.6758 515.5,53C 514.209,54.2917 514.209,55.4583 515.5,56.5C 516.833,57.5 516.833,58.5 515.5,59.5C 515.025,62.0821 515.692,64.0821 517.5,65.5C 517.833,68.1667 518.167,68.1667 518.5,65.5C 519.968,64.2209 520.635,62.5542 520.5,60.5C 520.579,59.0695 520.246,57.7362 519.5,56.5C 520.025,55.8076 520.692,55.3076 521.5,55C 520.402,54.2303 520.402,53.397 521.5,52.5C 522.653,51.6868 522.653,50.6868 521.5,49.5C 522.167,49.1667 522.833,48.8333 523.5,48.5C 523.291,47.914 522.957,47.414 522.5,47C 524.348,45.482 525.848,43.6487 527,41.5C 530.394,42.4558 533.894,42.7892 537.5,42.5C 537.5,43.8333 537.5,45.1667 537.5,46.5 Z M 535.5,54.5 C 535.833,54.5 536.167,54.5 536.5,54.5C 536.5,55.8333 536.5,57.1667 536.5,58.5C 535.105,57.1854 534.105,57.5188 533.5,59.5C 532.957,59.44 532.624,59.1067 532.5,58.5C 533.27,56.3078 534.27,54.9745 535.5,54.5 Z"/></g>
<g><path style="opacity:0.004" fill="#000000" d="M 538.5,43.5 C 539.833,44.1667 539.833,44.1667 538.5,43.5 Z"/></g>
<g><path style="opacity:0.999" fill="#e6a138" d="M 564.5,43.5 C 566.142,44.803 567.809,46.1363 569.5,47.5C 571.229,48.2362 572.229,49.5695 572.5,51.5C 571.167,51.8333 571.167,52.1667 572.5,52.5C 572.5,53.5 572.5,54.5 572.5,55.5C 572.328,56.4916 572.662,57.1583 573.5,57.5C 573.5,60.1667 573.5,62.8333 573.5,65.5C 564.833,65.5 556.167,65.5 547.5,65.5C 547.263,66.791 547.596,67.791 548.5,68.5C 548.5,68.8333 548.5,69.1667 548.5,69.5C 548.5,70.1667 548.833,70.5 549.5,70.5C 550.73,71.6057 551.896,72.6057 553,73.5C 554.011,72.6634 555.178,72.33 556.5,72.5C 557.167,73.8333 557.833,73.8333 558.5,72.5C 560.027,72.573 561.027,71.9063 561.5,70.5C 562.167,70.5 562.5,70.1667 562.5,69.5C 565.833,69.5 569.167,69.5 572.5,69.5C 572.357,71.2624 572.691,72.9291 573.5,74.5C 572.434,76.497 570.434,78.1637 567.5,79.5C 566.833,79.5 566.5,79.8333 566.5,80.5C 565.833,80.5 565.5,80.8333 565.5,81.5C 564.833,82.1667 564.167,82.8333 563.5,83.5C 561.917,84.6266 559.917,84.6266 557.5,83.5C 555.5,83.5 553.5,83.5 551.5,83.5C 547.629,85.0625 544.629,84.0625 542.5,80.5C 541.833,79.1667 540.833,78.1667 539.5,77.5C 539.5,77.1667 539.5,76.8333 539.5,76.5C 539.5,75.8333 539.167,75.5 538.5,75.5C 538.082,74.7784 537.416,74.2784 536.5,74C 537.252,73.3292 537.586,72.4959 537.5,71.5C 537.377,64.4707 537.71,57.4707 538.5,50.5C 538.833,49.8333 539.167,49.1667 539.5,48.5C 540.833,48.1667 540.833,47.8333 539.5,47.5C 540.469,46.6906 541.302,45.6906 542,44.5C 542.914,45.6537 543.747,45.487 544.5,44C 544.167,43.6667 543.833,43.3333 543.5,43C 544.577,42.5304 545.577,42.6971 546.5,43.5C 550.798,42.8005 555.131,42.4672 559.5,42.5C 560.583,42.4606 561.583,42.1272 562.5,41.5C 563.696,41.8457 563.696,42.3457 562.5,43C 563.094,43.4643 563.761,43.631 564.5,43.5 Z M 558.5,53.5 C 556.335,54.0623 556.668,54.729 559.5,55.5C 559.577,56.7498 560.244,57.5831 561.5,58C 557.167,58.6667 552.833,58.6667 548.5,58C 549.056,57.6174 549.389,57.1174 549.5,56.5C 550.338,56.1583 550.672,55.4916 550.5,54.5C 553.167,54.1667 553.167,53.8333 550.5,53.5C 553.214,51.0285 555.881,51.0285 558.5,53.5 Z"/></g>
<g><path style="opacity:0.999" fill="#eba539" d="M 599.5,43.5 C 599.5,47.1667 599.5,50.8333 599.5,54.5C 595.462,54.4676 592.462,55.1343 590.5,56.5C 589.833,56.5 589.5,56.8333 589.5,57.5C 588.833,57.5 588.5,57.8333 588.5,58.5C 587.508,66.3159 587.174,74.3159 587.5,82.5C 583.833,82.5 580.167,82.5 576.5,82.5C 576.5,75.8333 576.5,69.1667 576.5,62.5C 576.5,61.8333 576.5,61.1667 576.5,60.5C 576.5,60.1667 576.5,59.8333 576.5,59.5C 576.5,59.1667 576.5,58.8333 576.5,58.5C 576.5,58.1667 576.5,57.8333 576.5,57.5C 576.833,56.8333 577.167,56.1667 577.5,55.5C 576.972,54.1526 576.805,52.8193 577,51.5C 579.538,49.7167 582.371,47.55 585.5,45C 585.167,44.6667 584.833,44.3333 584.5,44C 586.019,44.3308 587.352,44.1641 588.5,43.5C 589.873,43.6567 591.207,43.49 592.5,43C 591.112,42.1107 591.278,41.6107 593,41.5C 595.346,41.9902 597.513,42.6568 599.5,43.5 Z"/></g>
<g><path style="opacity:0.022" fill="#000000" d="M 599.5,43.5 C 601.06,45.1561 602.06,47.1561 602.5,49.5C 602.5,50.1667 602.167,50.5 601.5,50.5C 600.167,50.8333 600.167,51.1667 601.5,51.5C 601.5,52.5 601.5,53.5 601.5,54.5C 600.167,54.8333 600.167,55.1667 601.5,55.5C 601.5,56.1667 601.5,56.8333 601.5,57.5C 600.05,58.6576 599.05,58.1576 598.5,56C 599.056,55.6174 599.389,55.1174 599.5,54.5C 599.5,50.8333 599.5,47.1667 599.5,43.5 Z"/></g>
<g><path style="opacity:0.999" fill="#e29f37" d="M 609.5,43.5 C 615.938,41.9936 622.271,42.3269 628.5,44.5C 629.609,44.5569 630.609,44.8902 631.5,45.5C 632.306,46.7281 633.306,47.7281 634.5,48.5C 633.167,48.8333 633.167,49.1667 634.5,49.5C 634.5,50.1667 634.5,50.8333 634.5,51.5C 634.5,52.8333 634.5,54.1667 634.5,55.5C 631.833,55.5 629.167,55.5 626.5,55.5C 624.456,54.9688 622.789,53.8022 621.5,52C 618.854,51.5026 616.187,51.3359 613.5,51.5C 613.238,52.9778 613.571,54.3112 614.5,55.5C 615.107,55.3764 615.44,55.0431 615.5,54.5C 616.75,54.5774 617.583,55.244 618,56.5C 618.414,56.0426 618.914,55.7093 619.5,55.5C 621.415,57.4719 623.749,58.4719 626.5,58.5C 626.5,59.1667 626.833,59.5 627.5,59.5C 628.167,59.5 628.833,59.5 629.5,59.5C 629.842,60.3382 630.508,60.6716 631.5,60.5C 631.842,61.3382 632.508,61.6716 633.5,61.5C 634.692,63.1131 635.692,64.7798 636.5,66.5C 636.5,69.1667 636.5,71.8333 636.5,74.5C 635.596,75.209 635.263,76.209 635.5,77.5C 632.366,79.415 630.032,81.415 628.5,83.5C 626.917,84.6266 624.917,84.6266 622.5,83.5C 619.5,83.5 616.5,83.5 613.5,83.5C 612.07,83.4208 610.736,83.7542 609.5,84.5C 608.304,84.1543 608.304,83.6543 609.5,83C 608.906,82.5357 608.239,82.369 607.5,82.5C 607.158,81.6618 606.492,81.3284 605.5,81.5C 604.327,79.4959 602.66,77.9959 600.5,77C 600.827,74.3151 600.827,71.4818 600.5,68.5C 604.5,68.5 608.5,68.5 612.5,68.5C 612.179,66.9519 611.179,66.2852 609.5,66.5C 609.158,65.6618 608.492,65.3284 607.5,65.5C 607.5,64.8333 607.167,64.5 606.5,64.5C 606.5,63.8333 606.167,63.5 605.5,63.5C 603.99,62.1639 602.323,60.9973 600.5,60C 601.252,59.3292 601.586,58.4959 601.5,57.5C 601.5,56.8333 601.5,56.1667 601.5,55.5C 601.5,55.1667 601.5,54.8333 601.5,54.5C 601.5,53.5 601.5,52.5 601.5,51.5C 601.5,51.1667 601.5,50.8333 601.5,50.5C 602.167,50.5 602.5,50.1667 602.5,49.5C 603.598,48.603 603.598,47.7697 602.5,47C 604.679,46.5581 605.345,45.5581 604.5,44C 606.139,42.4807 607.806,42.314 609.5,43.5 Z M 623.5,70.5 C 622.5,70.8333 621.833,71.5 621.5,72.5C 622.167,72.5 622.833,72.5 623.5,72.5C 622.508,74.0265 621.008,74.6932 619,74.5C 616.779,74.6068 614.946,73.9402 613.5,72.5C 614.833,72.1667 614.833,71.8333 613.5,71.5C 613.443,70.391 613.11,69.391 612.5,68.5C 613.15,68.1961 613.817,67.8627 614.5,67.5C 615.696,67.8457 615.696,68.3457 614.5,69C 616.035,69.4962 617.535,69.3295 619,68.5C 620.762,68.9444 620.595,69.4444 618.5,70C 620.381,69.904 622.047,70.0707 623.5,70.5 Z"/></g>
<g><path style="opacity:0.004" fill="#000000" d="M 38.5,44.5 C 39.8333,45.1667 39.8333,45.8333 38.5,46.5C 38.5,45.8333 38.5,45.1667 38.5,44.5 Z"/></g>
<g><path style="opacity:0.008" fill="#000000" d="M 119.5,44.5 C 120.833,45.1667 120.833,45.1667 119.5,44.5 Z"/></g>
<g><path style="opacity:0.008" fill="#000000" d="M 230.5,45.5 C 229.833,44.1667 229.833,44.1667 230.5,45.5 Z"/></g>
<g><path style="opacity:0.004" fill="#000000" d="M 268.5,45.5 C 267.833,45.5 267.5,45.8333 267.5,46.5C 266.957,46.44 266.624,46.1067 266.5,45.5C 267.257,44.2267 267.923,44.2267 268.5,45.5 Z"/></g>
<g><path style="opacity:0.788" fill="#664c28" d="M 499.5,42.5 C 500.341,44.3792 500.675,46.3792 500.5,48.5C 499.833,48.8333 499.167,49.1667 498.5,49.5C 497.833,49.5 497.5,49.1667 497.5,48.5C 496.833,48.5 496.5,48.1667 496.5,47.5C 497.397,46.4019 498.23,46.4019 499,47.5C 499.456,46.2559 498.956,45.4226 497.5,45C 498.066,44.0053 498.733,43.172 499.5,42.5 Z"/></g>
<g><path style="opacity:0.004" fill="#000000" d="M 631.5,44.5 C 632.833,45.1667 632.833,45.1667 631.5,44.5 Z"/></g>
<g><path style="opacity:0.004" fill="#000000" d="M 55.5,45.5 C 54.8333,46.1667 54.8333,46.1667 55.5,45.5 Z"/></g>
<g><path style="opacity:0.006" fill="#000000" d="M 162.5,45.5 C 163.525,45.8966 163.692,46.5632 163,47.5C 162.536,46.9056 162.369,46.2389 162.5,45.5 Z"/></g>
<g><path style="opacity:0.004" fill="#000000" d="M 257.5,47.5 C 257.369,46.7611 257.536,46.0944 258,45.5C 258.692,46.4368 258.525,47.1034 257.5,47.5 Z"/></g>
<g><path style="opacity:0.004" fill="#000000" d="M 411.5,46.5 C 411.5,46.1667 411.5,45.8333 411.5,45.5C 413.424,45.7107 413.757,46.3774 412.5,47.5C 411.833,47.5 411.5,47.1667 411.5,46.5 Z"/></g>
<g><path style="opacity:0.012" fill="#000000" d="M 512.5,45.5 C 513.833,46.1667 513.833,46.1667 512.5,45.5 Z"/></g>
<g><path style="opacity:0.994" fill="#10699e" d="M 18.5,45.5 C 21.7104,45.7508 24.7104,45.7508 27.5,45.5C 28.209,46.404 29.209,46.7373 30.5,46.5C 30.8417,47.3382 31.5084,47.6716 32.5,47.5C 32.8333,47.5 33.1667,47.5 33.5,47.5C 34.1667,47.5 34.5,47.8333 34.5,48.5C 34.8333,48.5 35.1667,48.5 35.5,48.5C 36.1667,48.5 36.5,48.8333 36.5,49.5C 37.1667,49.5 37.8333,49.5 38.5,49.5C 39.3149,50.8366 40.4815,51.8366 42,52.5C 41.904,54.3806 42.0707,56.0473 42.5,57.5C 44.145,58.4507 45.145,60.4507 45.5,63.5C 44.6618,63.8417 44.3284,64.5084 44.5,65.5C 42.7839,65.6287 41.1172,65.962 39.5,66.5C 34.8333,65.1667 30.1667,65.1667 25.5,66.5C 24.8333,66.5 24.1667,66.5 23.5,66.5C 22.8777,64.665 21.5444,63.4983 19.5,63C 20.7736,62.0228 20.7736,61.1894 19.5,60.5C 19.1667,57.8333 18.8333,57.8333 18.5,60.5C 17.2089,59.4583 17.2089,58.2917 18.5,57C 15.529,55.4022 14.529,53.0689 15.5,50C 14.9341,49.0053 14.2674,48.172 13.5,47.5C 14.6354,45.7868 16.302,45.1201 18.5,45.5 Z"/></g>
<g><path style="opacity:0.004" fill="#000000" d="M 342.5,47.5 C 341.833,46.1667 341.833,46.1667 342.5,47.5 Z"/></g>
<g><path style="opacity:0.004" fill="#000000" d="M 417.5,46.5 C 418.573,47.2506 418.74,48.2506 418,49.5C 417.517,48.552 417.351,47.552 417.5,46.5 Z"/></g>
<g><path style="opacity:0.005" fill="#000000" d="M 537.5,46.5 C 538.167,46.8333 538.833,47.1667 539.5,47.5C 539.5,47.8333 539.5,48.1667 539.5,48.5C 538.833,48.5 538.167,48.5 537.5,48.5C 537.5,47.8333 537.5,47.1667 537.5,46.5 Z"/></g>
<g><path style="opacity:0.004" fill="#000000" d="M 569.5,46.5 C 570.833,47.1667 570.833,47.1667 569.5,46.5 Z"/></g>
<g><path style="opacity:0.004" fill="#000000" d="M 148.5,48.5 C 147.833,47.1667 147.833,47.1667 148.5,48.5 Z"/></g>
<g><path style="opacity:0.005" fill="#000000" d="M 298.5,50.5 C 298.5,49.8333 298.5,49.1667 298.5,48.5C 299.895,46.9456 300.561,47.279 300.5,49.5C 300.561,51.721 299.895,52.0544 298.5,50.5 Z"/></g>
<g><path style="opacity:0.004" fill="#000000" d="M 381.5,48.5 C 380.833,47.1667 380.833,47.1667 381.5,48.5 Z"/></g>
<g><path style="opacity:0.004" fill="#000000" d="M 437.5,48.5 C 436.833,47.1667 436.833,47.1667 437.5,48.5 Z"/></g>
<g><path style="opacity:0.004" fill="#000000" d="M 513.5,47.5 C 514.833,48.1667 514.833,48.1667 513.5,47.5 Z"/></g>
<g><path style="opacity:0.004" fill="#000000" d="M 373.5,48.5 C 374.833,49.1667 374.833,49.1667 373.5,48.5 Z"/></g>
<g><path style="opacity:0.004" fill="#000000" d="M 634.5,48.5 C 635.167,48.5 635.5,48.8333 635.5,49.5C 635.167,49.1667 634.833,48.8333 634.5,48.5 Z"/></g>
<g><path style="opacity:0.004" fill="#000000" d="M 259.5,49.5 C 260.833,50.1667 260.833,50.1667 259.5,49.5 Z"/></g>
<g><path style="opacity:0.204" fill="#08273c" d="M 334.5,46.5 C 335.66,58.6597 335.827,70.9931 335,83.5C 331.591,84.6219 328.091,84.7886 324.5,84C 323.944,83.6174 323.611,83.1174 323.5,82.5C 327.167,82.5 330.833,82.5 334.5,82.5C 334.5,70.5 334.5,58.5 334.5,46.5 Z"/></g>
<g><path style="opacity:0.004" fill="#000000" d="M 635.5,49.5 C 636.833,50.1667 636.833,50.1667 635.5,49.5 Z"/></g>
<g><path style="opacity:0.004" fill="#000000" d="M 169.5,50.5 C 170.833,51.1667 170.833,51.1667 169.5,50.5 Z"/></g>
<g><path style="opacity:0.004" fill="#000000" d="M 317.5,50.5 C 318.833,51.1667 318.833,51.1667 317.5,50.5 Z"/></g>
<g><path style="opacity:0.004" fill="#000000" d="M 338.5,50.5 C 339.833,51.1667 339.833,51.1667 338.5,50.5 Z"/></g>
<g><path style="opacity:0.008" fill="#000000" d="M 445.5,51.5 C 445.897,50.475 446.563,50.3083 447.5,51C 446.906,51.4643 446.239,51.631 445.5,51.5 Z"/></g>
<g><path style="opacity:0.007" fill="#030300" d="M 500.5,50.5 C 501.167,50.5 501.5,50.8333 501.5,51.5C 500.778,51.9175 500.278,52.5842 500,53.5C 499.26,52.2506 499.427,51.2506 500.5,50.5 Z"/></g>
<g><path style="opacity:0.004" fill="#000000" d="M 53.5,51.5 C 52.8333,52.1667 52.8333,52.1667 53.5,51.5 Z"/></g>
<g><path style="opacity:0.624" fill="#5a411d" d="M 437.5,48.5 C 441.176,48.7298 443.843,49.7298 445.5,51.5C 445.5,51.8333 445.5,52.1667 445.5,52.5C 442.084,52.4725 439.084,51.4725 436.5,49.5C 437.167,49.5 437.5,49.1667 437.5,48.5 Z"/></g>
<g><path style="opacity:0.014" fill="#000000" d="M 478.5,51.5 C 478.918,52.2216 479.584,52.7216 480.5,53C 479.251,53.7401 478.251,53.5735 477.5,52.5C 477.5,51.8333 477.833,51.5 478.5,51.5 Z"/></g>
<g><path style="opacity:0.004" fill="#000000" d="M 521.5,52.5 C 520.833,51.1667 520.833,51.1667 521.5,52.5 Z"/></g>
<g><path style="opacity:0.004" fill="#000000" d="M 572.5,51.5 C 573.833,52.1667 573.833,52.1667 572.5,51.5 Z"/></g>
<g><path style="opacity:0.004" fill="#000000" d="M 262.5,52.5 C 263.833,53.1667 263.833,53.1667 262.5,52.5 Z"/></g>
<g><path style="opacity:0.005" fill="#000000" d="M 615.5,54.5 C 614.227,53.9232 614.227,53.2565 615.5,52.5C 616.463,52.9698 616.463,53.6365 615.5,54.5 Z"/></g>
<g><path style="opacity:0.008" fill="#000000" d="M 164.5,53.5 C 165.833,54.1667 165.833,54.1667 164.5,53.5 Z"/></g>
<g><path style="opacity:0.004" fill="#000000" d="M 199.5,53.5 C 200.833,54.1667 200.833,54.1667 199.5,53.5 Z"/></g>
<g><path style="opacity:0.008" fill="#000000" d="M 261.5,53.5 C 261.833,53.5 262.167,53.5 262.5,53.5C 262.167,56.1667 261.833,56.1667 261.5,53.5 Z"/></g>
<g><path style="opacity:0.114" fill="#3a2d19" d="M 466.5,48.5 C 466.5,50.1667 466.5,51.8333 466.5,53.5C 469.833,53.5 473.167,53.5 476.5,53.5C 476.953,54.4584 477.619,55.2917 478.5,56C 477.552,56.4828 476.552,56.6495 475.5,56.5C 472.645,54.7499 469.311,53.9165 465.5,54C 463.302,52.1217 463.136,49.9551 465,47.5C 465.383,48.056 465.883,48.3893 466.5,48.5 Z"/></g>
<g><path style="opacity:0.004" fill="#000000" d="M 183.5,54.5 C 184.833,55.1667 184.833,55.8333 183.5,56.5C 183.5,55.8333 183.5,55.1667 183.5,54.5 Z"/></g>
<g><path style="opacity:0.012" fill="#000000" d="M 402.5,54.5 C 403.167,54.5 403.5,54.8333 403.5,55.5C 402.508,63.3159 402.174,71.3159 402.5,79.5C 401.167,71.1667 401.167,62.8333 402.5,54.5 Z"/></g>
<g><path style="opacity:0.004" fill="#000000" d="M 455.5,54.5 C 456.833,55.1667 456.833,55.1667 455.5,54.5 Z"/></g>
<g><path style="opacity:0.004" fill="#000000" d="M 515.5,56.5 C 515.369,55.7611 515.536,55.0944 516,54.5C 516.692,55.4368 516.525,56.1034 515.5,56.5 Z"/></g>
<g><path style="opacity:0.004" fill="#000000" d="M 165.5,55.5 C 166.833,56.1667 166.833,56.1667 165.5,55.5 Z"/></g>
<g><path style="opacity:0.008" fill="#000000" d="M 169.5,56.5 C 168.833,55.1667 168.833,55.1667 169.5,56.5 Z"/></g>
<g><path style="opacity:0.004" fill="#000000" d="M 198.5,56.5 C 199.251,55.4265 200.251,55.2599 201.5,56C 200.552,56.4828 199.552,56.6495 198.5,56.5 Z"/></g>
<g><path style="opacity:0.004" fill="#000000" d="M 237.5,55.5 C 238.525,55.8966 238.692,56.5632 238,57.5C 237.536,56.9056 237.369,56.2389 237.5,55.5 Z"/></g>
<g><path style="opacity:0.011" fill="#000000" d="M 376.5,55.5 C 377.787,56.8714 378.453,58.7047 378.5,61C 378.038,63.5395 378.038,65.8729 378.5,68C 377.648,69.7284 376.648,69.895 375.5,68.5C 375.5,64.8333 375.5,61.1667 375.5,57.5C 376.338,57.1583 376.672,56.4916 376.5,55.5 Z"/></g>
<g><path style="opacity:0.005" fill="#000000" d="M 475.5,56.5 C 475.5,56.8333 475.5,57.1667 475.5,57.5C 474.5,57.5 473.5,57.5 472.5,57.5C 473.105,55.5188 474.105,55.1854 475.5,56.5 Z"/></g>
<g><path style="opacity:0.011" fill="#010000" d="M 572.5,55.5 C 574.167,56.8333 575.833,56.8333 577.5,55.5C 577.167,56.1667 576.833,56.8333 576.5,57.5C 575.5,57.5 574.5,57.5 573.5,57.5C 572.662,57.1583 572.328,56.4916 572.5,55.5 Z"/></g>
<g><path style="opacity:0.28" fill="#432f16" d="M 634.5,51.5 C 635.376,51.3691 636.043,51.7025 636.5,52.5C 635.754,53.7362 635.421,55.0695 635.5,56.5C 632.813,56.3359 630.146,56.5026 627.5,57C 628.598,57.7697 628.598,58.603 627.5,59.5C 626.833,59.5 626.5,59.1667 626.5,58.5C 626.082,57.7784 625.416,57.2784 624.5,57C 625.416,56.7216 626.082,56.2216 626.5,55.5C 629.167,55.5 631.833,55.5 634.5,55.5C 634.5,54.1667 634.5,52.8333 634.5,51.5 Z"/></g>
<g><path style="opacity:0.008" fill="#000000" d="M 42.5,56.5 C 43.8333,57.1667 43.8333,57.1667 42.5,56.5 Z"/></g>
<g><path style="opacity:0.004" fill="#000000" d="M 133.5,56.5 C 134.833,57.1667 134.833,57.1667 133.5,56.5 Z"/></g>
<g><path style="opacity:0.008" fill="#000000" d="M 590.5,56.5 C 591.833,57.1667 591.833,57.1667 590.5,56.5 Z"/></g>
<g><path style="opacity:0.047" fill="#061e21" d="M 414.5,53.5 C 415.497,53.4701 416.164,53.9701 416.5,55C 415.705,64.4655 415.205,73.9655 415,83.5C 411.927,84.6168 408.76,84.7835 405.5,84C 406.416,83.7216 407.082,83.2216 407.5,82.5C 409.833,82.5 412.167,82.5 414.5,82.5C 414.5,72.8333 414.5,63.1667 414.5,53.5 Z"/></g>
<g><path style="opacity:0.004" fill="#000000" d="M 501.5,57.5 C 500.833,58.1667 500.833,58.1667 501.5,57.5 Z"/></g>
<g><path style="opacity:0.031" fill="#000000" d="M 536.5,58.5 C 536.5,61.5 536.5,64.5 536.5,67.5C 534.769,66.0145 533.769,64.0145 533.5,61.5C 534.833,60.8333 534.833,60.1667 533.5,59.5C 534.105,57.5188 535.105,57.1854 536.5,58.5 Z"/></g>
<g><path style="opacity:0.007" fill="#000000" d="M 588.5,58.5 C 588.5,57.8333 588.833,57.5 589.5,57.5C 589.833,57.5 590.167,57.5 590.5,57.5C 590.633,60.925 589.967,61.2583 588.5,58.5 Z"/></g>
<g><path style="opacity:0.005" fill="#000000" d="M 631.5,59.5 C 630.833,59.5 630.167,59.5 629.5,59.5C 630.204,57.6558 631.537,57.1558 633.5,58C 632.584,58.2784 631.918,58.7784 631.5,59.5 Z"/></g>
<g><path style="opacity:0.153" fill="#0a1923" d="M 391.5,57.5 C 392.657,65.6563 392.823,73.9896 392,82.5C 390.178,84.0454 388.011,84.712 385.5,84.5C 383.833,84.3333 382.167,84.1667 380.5,84C 379.944,83.6174 379.611,83.1174 379.5,82.5C 383.167,82.5 386.833,82.5 390.5,82.5C 390.174,73.9832 390.507,65.6499 391.5,57.5 Z"/></g>
<g><path style="opacity:0.004" fill="#000000" d="M 518.5,58.5 C 519.833,59.1667 519.833,59.1667 518.5,58.5 Z"/></g>
<g><path style="opacity:0.008" fill="#000000" d="M 576.5,58.5 C 576.5,58.8333 576.5,59.1667 576.5,59.5C 575.167,59.8333 575.167,60.1667 576.5,60.5C 576.5,61.1667 576.5,61.8333 576.5,62.5C 575.732,63.2625 575.232,64.2625 575,65.5C 574.833,64.3333 574.667,63.1667 574.5,62C 574.608,60.3189 575.275,59.1522 576.5,58.5 Z"/></g>
<g><path style="opacity:0.01" fill="#000000" d="M 236.5,59.5 C 237.833,61.5 237.833,63.5 236.5,65.5C 236.5,63.5 236.5,61.5 236.5,59.5 Z"/></g>
<g><path style="opacity:0.006" fill="#000000" d="M 425.5,59.5 C 426.167,59.5 426.833,59.5 427.5,59.5C 426.833,60.8333 426.167,60.8333 425.5,59.5 Z"/></g>
<g><path style="opacity:0.004" fill="#000000" d="M 503.5,59.5 C 502.833,60.1667 502.833,60.1667 503.5,59.5 Z"/></g>
<g><path style="opacity:0.004" fill="#000000" d="M 631.5,59.5 C 632.833,60.1667 632.833,60.1667 631.5,59.5 Z"/></g>
<g><path style="opacity:0.008" fill="#000000" d="M 18.5,60.5 C 18.8333,60.5 19.1667,60.5 19.5,60.5C 19.3147,61.1701 18.9813,61.1701 18.5,60.5 Z"/></g>
<g><path style="opacity:0.006" fill="#000000" d="M 135.5,60.5 C 136.833,61.1667 136.833,61.8333 135.5,62.5C 135.5,61.8333 135.5,61.1667 135.5,60.5 Z"/></g>
<g><path style="opacity:0.006" fill="#000000" d="M 430.5,60.5 C 430.5,60.8333 430.5,61.1667 430.5,61.5C 427.833,61.1667 427.833,60.8333 430.5,60.5 Z"/></g>
<g><path style="opacity:0.004" fill="#000000" d="M 633.5,60.5 C 634.833,61.1667 634.833,61.1667 633.5,60.5 Z"/></g>
<g><path style="opacity:0.004" fill="#000000" d="M 430.5,61.5 C 431.833,62.1667 431.833,62.1667 430.5,61.5 Z"/></g>
<g><path style="opacity:0.004" fill="#000000" d="M 461.5,61.5 C 462.833,62.1667 462.833,62.1667 461.5,61.5 Z"/></g>
<g><path style="opacity:0.071" fill="#5c3e16" d="M 588.5,58.5 C 588.666,66.84 588.5,75.1733 588,83.5C 584.591,84.6219 581.091,84.7886 577.5,84C 576.944,83.6174 576.611,83.1174 576.5,82.5C 580.167,82.5 583.833,82.5 587.5,82.5C 587.174,74.3159 587.508,66.3159 588.5,58.5 Z"/></g>
<g><path style="opacity:0.004" fill="#000000" d="M 45.5,63.5 C 46.8333,64.1667 46.8333,64.1667 45.5,63.5 Z"/></g>
<g><path style="opacity:0.004" fill="#000000" d="M 419.5,63.5 C 420.833,64.1667 420.833,64.1667 419.5,63.5 Z"/></g>
<g><path style="opacity:0.004" fill="#000000" d="M 438.5,63.5 C 439.833,64.1667 439.833,64.1667 438.5,63.5 Z"/></g>
<g><path style="opacity:0.004" fill="#000000" d="M 531.5,63.5 C 532.833,64.1667 532.833,64.8333 531.5,65.5C 531.5,64.8333 531.5,64.1667 531.5,63.5 Z"/></g>
<g><path style="opacity:0.012" fill="#000000" d="M 605.5,63.5 C 606.167,63.5 606.5,63.8333 606.5,64.5C 607.167,64.5 607.5,64.8333 607.5,65.5C 606.614,66.7759 605.614,66.7759 604.5,65.5C 604.863,64.8165 605.196,64.1499 605.5,63.5 Z"/></g>
<g><path style="opacity:0.839" fill="#644821" d="M 515.5,59.5 C 516.376,59.3691 517.043,59.7025 517.5,60.5C 516.674,61.451 516.508,62.451 517,63.5C 517.667,62.1667 518.333,62.1667 519,63.5C 519.617,62.5509 519.451,61.7175 518.5,61C 519.094,60.5357 519.761,60.369 520.5,60.5C 520.635,62.5542 519.968,64.2209 518.5,65.5C 518.167,65.5 517.833,65.5 517.5,65.5C 515.692,64.0821 515.025,62.0821 515.5,59.5 Z"/></g>
<g><path style="opacity:0.004" fill="#000000" d="M 637.5,66.5 C 637.167,66.5 636.833,66.5 636.5,66.5C 636.833,63.8333 637.167,63.8333 637.5,66.5 Z"/></g>
<g><path style="opacity:0.008" fill="#000000" d="M 505.5,65.5 C 504.833,66.1667 504.833,66.1667 505.5,65.5 Z"/></g>
<g><path style="opacity:0.31" fill="#78561f" d="M 573.5,65.5 C 565.167,66.1667 556.833,66.8333 548.5,67.5C 548.5,67.8333 548.5,68.1667 548.5,68.5C 547.596,67.791 547.263,66.791 547.5,65.5C 556.167,65.5 564.833,65.5 573.5,65.5 Z"/></g>
<g><path style="opacity:0.014" fill="#000000" d="M 135.5,66.5 C 136.794,68.0478 137.461,70.0478 137.5,72.5C 137.333,74.5 137.167,76.5 137,78.5C 136.617,77.944 136.117,77.6107 135.5,77.5C 135.5,76.8333 135.5,76.1667 135.5,75.5C 136.551,72.6558 136.551,69.6558 135.5,66.5 Z"/></g>
<g><path style="opacity:0.011" fill="#1e140a" d="M 460.5,63.5 C 461.29,64.6085 461.79,65.9419 462,67.5C 462.77,66.4019 463.603,66.4019 464.5,67.5C 464.5,69.8333 464.5,72.1667 464.5,74.5C 463.391,74.4431 462.391,74.1098 461.5,73.5C 461.672,72.5084 461.338,71.8417 460.5,71.5C 460.5,68.8333 460.5,66.1667 460.5,63.5 Z"/></g>
<g><path style="opacity:0.008" fill="#000000" d="M 609.5,66.5 C 608.833,67.1667 608.833,67.1667 609.5,66.5 Z"/></g>
<g><path style="opacity:0.004" fill="#000000" d="M 637.5,66.5 C 638.525,66.8966 638.692,67.5632 638,68.5C 637.536,67.9056 637.369,67.2389 637.5,66.5 Z"/></g>
<g><path style="opacity:0.9" fill="#654a20" d="M 430.5,66.5 C 427.167,66.5 423.833,66.5 420.5,66.5C 420.5,69.1667 420.5,71.8333 420.5,74.5C 418.235,74.5594 417.902,73.7261 419.5,72C 417.084,70.1035 417.084,68.1035 419.5,66C 422.758,65.7883 425.924,65.2883 429,64.5C 429.717,65.0442 430.217,65.7109 430.5,66.5 Z"/></g>
<g><path style="opacity:0.005" fill="#000007" d="M 506.5,67.5 C 507.167,67.5 507.5,67.8333 507.5,68.5C 506.778,68.9175 506.278,69.5842 506,70.5C 505.26,69.2506 505.427,68.2506 506.5,67.5 Z"/></g>
<g><path style="opacity:0.004" fill="#000000" d="M 548.5,68.5 C 548.5,68.1667 548.5,67.8333 548.5,67.5C 553.619,66.8969 558.285,67.5636 562.5,69.5C 562.167,69.5 561.833,69.5 561.5,69.5C 559.866,68.8389 558.033,68.5056 556,68.5C 553.551,68.6582 551.384,69.3248 549.5,70.5C 548.833,70.5 548.5,70.1667 548.5,69.5C 549.833,69.1667 549.833,68.8333 548.5,68.5 Z"/></g>
<g><path style="opacity:0.004" fill="#000000" d="M 563.5,67.5 C 564.833,68.1667 564.833,68.1667 563.5,67.5 Z"/></g>
<g><path style="opacity:0.004" fill="#000000" d="M 71.5,68.5 C 73.9327,69.5477 73.9327,70.2144 71.5,70.5C 71.5,69.8333 71.5,69.1667 71.5,68.5 Z"/></g>
<g><path style="opacity:0.006" fill="#000000" d="M 178.5,68.5 C 178.833,68.5 179.167,68.5 179.5,68.5C 179.672,69.4916 179.338,70.1583 178.5,70.5C 178.5,69.8333 178.5,69.1667 178.5,68.5 Z"/></g>
<g><path style="opacity:0.004" fill="#000000" d="M 184.5,68.5 C 185.613,69.9464 185.78,71.6131 185,73.5C 184.506,71.8659 184.34,70.1992 184.5,68.5 Z"/></g>
<g><path style="opacity:0.01" fill="#0e0803" d="M 449.5,70.5 C 449.5,71.1667 449.167,71.5 448.5,71.5C 447.833,71.5 447.5,71.8333 447.5,72.5C 447.5,73.1667 447.167,73.5 446.5,73.5C 445.488,71.8998 445.988,70.5665 448,69.5C 448.383,70.056 448.883,70.3893 449.5,70.5 Z"/></g>
<g><path style="opacity:0.004" fill="#000000" d="M 529.5,69.5 C 530.833,70.1667 530.833,70.1667 529.5,69.5 Z"/></g>
<g><path style="opacity:0.004" fill="#000000" d="M 534.5,69.5 C 535.833,70.1667 535.833,70.1667 534.5,69.5 Z"/></g>
<g><path style="opacity:0.011" fill="#000000" d="M 561.5,69.5 C 561.5,69.8333 561.5,70.1667 561.5,70.5C 561.027,71.9063 560.027,72.573 558.5,72.5C 557.833,72.5 557.167,72.5 556.5,72.5C 557.965,71.2632 559.632,70.2632 561.5,69.5 Z"/></g>
<g><path style="opacity:0.004" fill="#000000" d="M 155.5,70.5 C 156.833,71.1667 156.833,71.1667 155.5,70.5 Z"/></g>
<g><path style="opacity:0.004" fill="#000000" d="M 485.5,71.5 C 484.833,71.5 484.5,71.8333 484.5,72.5C 483.227,71.9232 483.227,71.2565 484.5,70.5C 485.107,70.6236 485.44,70.9569 485.5,71.5 Z"/></g>
<g><path style="opacity:0.004" fill="#000000" d="M 573.5,70.5 C 574.833,71.1667 574.833,71.1667 573.5,70.5 Z"/></g>
<g><path style="opacity:0.007" fill="#000000" d="M 623.5,70.5 C 623.5,71.1667 623.5,71.8333 623.5,72.5C 622.833,72.5 622.167,72.5 621.5,72.5C 621.833,71.5 622.5,70.8333 623.5,70.5 Z"/></g>
<g><path style="opacity:0.999" fill="#6fd1ed" d="M 135.5,75.5 C 135.5,76.1667 135.5,76.8333 135.5,77.5C 135.5,79.1667 135.5,80.8333 135.5,82.5C 134.167,83.1667 134.167,83.8333 135.5,84.5C 135.631,85.2389 135.464,85.9056 135,86.5C 134.346,85.3044 133.846,85.3044 133.5,86.5C 134.684,88.467 134.351,90.1336 132.5,91.5C 132.167,90.1667 131.833,90.1667 131.5,91.5C 130.167,91.8333 130.167,92.1667 131.5,92.5C 130.833,93.1667 130.167,93.8333 129.5,94.5C 128.167,95.1667 127.167,96.1667 126.5,97.5C 125.5,97.8333 124.833,98.5 124.5,99.5C 123.833,99.5 123.5,99.8333 123.5,100.5C 122.508,100.328 121.842,100.662 121.5,101.5C 120.833,101.5 120.5,101.833 120.5,102.5C 119.508,102.328 118.842,102.662 118.5,103.5C 117.508,103.328 116.842,103.662 116.5,104.5C 115.508,104.328 114.842,104.662 114.5,105.5C 110.5,105.833 110.5,106.167 114.5,106.5C 113.833,107.167 113.167,107.833 112.5,108.5C 112.167,108.5 111.833,108.5 111.5,108.5C 110.713,106.896 109.38,106.229 107.5,106.5C 100.5,106.5 93.5,106.5 86.5,106.5C 84.1305,106.851 81.7972,107.018 79.5,107C 81.9316,105.913 81.5983,105.413 78.5,105.5C 78.1583,104.662 77.4916,104.328 76.5,104.5C 74.8185,102.992 72.8185,101.992 70.5,101.5C 70.1667,100.167 69.8333,100.167 69.5,101.5C 68.8333,100.833 68.1667,100.167 67.5,99.5C 65.4845,97.0532 63.1512,95.7199 60.5,95.5C 59.7025,95.9569 59.3691,96.6236 59.5,97.5C 58.2264,98.1894 58.2264,99.0228 59.5,100C 58.1667,100.667 57.1667,101.667 56.5,103C 50.1405,103.831 43.8072,103.664 37.5,102.5C 36.9882,99.5415 35.3216,96.8748 32.5,94.5C 33.3256,93.549 33.4922,92.549 33,91.5C 32.6667,91.8333 32.3333,92.1667 32,92.5C 31.0296,90.7262 30.1963,88.8928 29.5,87C 29.8361,85.9701 30.5028,85.4701 31.5,85.5C 32.4959,85.5858 33.3292,85.2524 34,84.5C 43.6435,85.0411 53.1435,86.0411 62.5,87.5C 62.8333,91.5 63.1667,91.5 63.5,87.5C 64.3382,87.1583 64.6716,86.4916 64.5,85.5C 65.3382,85.1583 65.6716,84.4916 65.5,83.5C 66.1667,83.5 66.5,83.1667 66.5,82.5C 66.5,82.1667 66.5,81.8333 66.5,81.5C 67.1667,81.5 67.5,81.1667 67.5,80.5C 67.5,79.8333 67.5,79.1667 67.5,78.5C 68.1667,78.5 68.5,78.1667 68.5,77.5C 68.5,77.1667 68.5,76.8333 68.5,76.5C 69.1667,76.5 69.8333,76.5 70.5,76.5C 71.1174,76.3893 71.6174,76.056 72,75.5C 72.2784,76.4158 72.7784,77.0825 73.5,77.5C 73.5,78.1667 73.8333,78.5 74.5,78.5C 78.8665,82.6837 83.8665,85.1837 89.5,86C 88.3044,86.6543 88.3044,87.1543 89.5,87.5C 91.0983,86.5153 92.765,86.3486 94.5,87C 93.5,87.3333 92.5,87.6667 91.5,88C 96.2867,88.8785 100.953,88.5452 105.5,87C 111.845,83.9027 113.845,78.0694 111.5,69.5C 119.545,70.511 127.545,72.511 135.5,75.5 Z"/></g>
<g><path style="opacity:0.006" fill="#000000" d="M 416.5,72.5 C 416.897,71.475 417.563,71.3083 418.5,72C 417.906,72.4643 417.239,72.631 416.5,72.5 Z"/></g>
<g><path style="opacity:0.014" fill="#000000" d="M 477.5,74.5 C 476.833,74.5 476.5,74.1667 476.5,73.5C 476.369,72.7611 476.536,72.0944 477,71.5C 478.399,72.2266 479.899,72.7266 481.5,73C 479.942,73.21 478.609,73.71 477.5,74.5 Z"/></g>
<g><path style="opacity:0.004" fill="#000000" d="M 499.5,71.5 C 500.833,72.1667 500.833,72.1667 499.5,71.5 Z"/></g>
<g><path style="opacity:0.004" fill="#000000" d="M 507.5,71.5 C 506.833,72.1667 506.833,72.1667 507.5,71.5 Z"/></g>
<g><path style="opacity:0.008" fill="#000000" d="M 157.5,72.5 C 156.833,73.1667 156.833,73.1667 157.5,72.5 Z"/></g>
<g><path style="opacity:0.004" fill="#000000" d="M 177.5,72.5 C 178.833,73.1667 178.833,73.1667 177.5,72.5 Z"/></g>
<g><path style="opacity:0.004" fill="#000000" d="M 498.5,72.5 C 498.833,72.5 499.167,72.5 499.5,72.5C 499.672,73.4916 499.338,74.1583 498.5,74.5C 498.5,73.8333 498.5,73.1667 498.5,72.5 Z"/></g>
<g><path style="opacity:0.004" fill="#000000" d="M 598.5,72.5 C 599.525,72.8966 599.692,73.5632 599,74.5C 598.536,73.9056 598.369,73.2389 598.5,72.5 Z"/></g>
<g><path style="opacity:0.004" fill="#000000" d="M 637.5,74.5 C 637.369,73.7611 637.536,73.0944 638,72.5C 638.692,73.4368 638.525,74.1034 637.5,74.5 Z"/></g>
<g><path style="opacity:0.006" fill="#000000" d="M 176.5,74.5 C 177.833,75.1667 177.833,75.8333 176.5,76.5C 176.5,75.8333 176.5,75.1667 176.5,74.5 Z"/></g>
<g><path style="opacity:0.004" fill="#000000" d="M 636.5,74.5 C 636.833,74.5 637.167,74.5 637.5,74.5C 637.167,77.1667 636.833,77.1667 636.5,74.5 Z"/></g>
<g><path style="opacity:0.004" fill="#000000" d="M 463.5,76.5 C 462.833,75.1667 462.833,75.1667 463.5,76.5 Z"/></g>
<g><path style="opacity:0.004" fill="#000000" d="M 527.5,75.5 C 528.833,76.1667 528.833,76.1667 527.5,75.5 Z"/></g>
<g><path style="opacity:0.004" fill="#000000" d="M 538.5,75.5 C 539.167,75.5 539.5,75.8333 539.5,76.5C 539.5,76.8333 539.5,77.1667 539.5,77.5C 539.19,78.7383 538.69,78.7383 538,77.5C 537.308,76.5632 537.475,75.8966 538.5,75.5 Z"/></g>
<g><path style="opacity:0.004" fill="#000000" d="M 73.5,77.5 C 74.4971,76.2875 75.4971,76.4542 76.5,78C 75.9056,78.4643 75.2389,78.631 74.5,78.5C 73.8333,78.5 73.5,78.1667 73.5,77.5 Z"/></g>
<g><path style="opacity:0.004" fill="#000000" d="M 158.5,77.5 C 157.833,76.1667 157.833,76.1667 158.5,77.5 Z"/></g>
<g><path style="opacity:0.004" fill="#000000" d="M 262.5,76.5 C 263.833,77.1667 263.833,77.1667 262.5,76.5 Z"/></g>
<g><path style="opacity:0.004" fill="#000000" d="M 296.5,76.5 C 297.833,77.1667 297.833,77.1667 296.5,76.5 Z"/></g>
<g><path style="opacity:0.004" fill="#000000" d="M 299.5,76.5 C 300.833,77.1667 300.833,77.1667 299.5,76.5 Z"/></g>
<g><path style="opacity:0.004" fill="#000000" d="M 340.5,76.5 C 340.833,76.5 341.167,76.5 341.5,76.5C 341.315,77.1701 340.981,77.1701 340.5,76.5 Z"/></g>
<g><path style="opacity:0.004" fill="#000000" d="M 459.5,76.5 C 460.833,77.1667 460.833,77.1667 459.5,76.5 Z"/></g>
<g><path style="opacity:0.004" fill="#000000" d="M 295.5,77.5 C 295.833,77.5 296.167,77.5 296.5,77.5C 296.315,78.1701 295.981,78.1701 295.5,77.5 Z"/></g>
<g><path style="opacity:0.004" fill="#000000" d="M 372.5,78.5 C 372.5,78.1667 372.5,77.8333 372.5,77.5C 375.167,77.8333 375.167,78.1667 372.5,78.5 Z"/></g>
<g><path style="opacity:0.004" fill="#000000" d="M 458.5,77.5 C 458.833,77.5 459.167,77.5 459.5,77.5C 459.315,78.1701 458.981,78.1701 458.5,77.5 Z"/></g>
<g><path style="opacity:0.004" fill="#000000" d="M 635.5,77.5 C 636.833,78.1667 636.833,78.1667 635.5,77.5 Z"/></g>
<g><path style="opacity:0.004" fill="#000000" d="M 25.5,78.5 C 26.8333,79.1667 26.8333,79.1667 25.5,78.5 Z"/></g>
<g><path style="opacity:0.004" fill="#000000" d="M 175.5,78.5 C 176.833,79.1667 176.833,79.1667 175.5,78.5 Z"/></g>
<g><path style="opacity:0.004" fill="#000000" d="M 371.5,78.5 C 371.833,78.5 372.167,78.5 372.5,78.5C 372.5,79.8333 371.833,80.5 370.5,80.5C 370.5,80.1667 370.5,79.8333 370.5,79.5C 371.167,79.5 371.5,79.1667 371.5,78.5 Z"/></g>
<g><path style="opacity:0.004" fill="#000000" d="M 227.5,79.5 C 228.833,80.1667 228.833,80.1667 227.5,79.5 Z"/></g>
<g><path style="opacity:0.008" fill="#000000" d="M 567.5,79.5 C 567.719,80.675 567.386,81.675 566.5,82.5C 565.893,82.3764 565.56,82.0431 565.5,81.5C 566.167,81.5 566.5,81.1667 566.5,80.5C 566.5,79.8333 566.833,79.5 567.5,79.5 Z"/></g>
<g><path style="opacity:0.008" fill="#000000" d="M 174.5,80.5 C 175.833,81.1667 175.833,81.1667 174.5,80.5 Z"/></g>
<g><path style="opacity:0.004" fill="#000000" d="M 215.5,80.5 C 217.975,80.7467 217.975,81.4134 215.5,82.5C 214.893,82.3764 214.56,82.0431 214.5,81.5C 215.167,81.5 215.5,81.1667 215.5,80.5 Z"/></g>
<g><path style="opacity:0.004" fill="#000000" d="M 369.5,80.5 C 369.833,80.5 370.167,80.5 370.5,80.5C 370.167,83.1667 369.833,83.1667 369.5,80.5 Z"/></g>
<g><path style="opacity:0.004" fill="#000000" d="M 542.5,80.5 C 541.833,81.1667 541.833,81.1667 542.5,80.5 Z"/></g>
<g><path style="opacity:0.004" fill="#000000" d="M 253.5,81.5 C 253.833,81.5 254.167,81.5 254.5,81.5C 254.315,82.1701 253.981,82.1701 253.5,81.5 Z"/></g>
<g><path style="opacity:0.004" fill="#000000" d="M 346.5,81.5 C 345.833,82.1667 345.833,82.1667 346.5,81.5 Z"/></g>
<g><path style="opacity:0.004" fill="#000000" d="M 454.5,81.5 C 454.833,81.5 455.167,81.5 455.5,81.5C 455.315,82.1701 454.981,82.1701 454.5,81.5 Z"/></g>
<g><path style="opacity:0.004" fill="#000000" d="M 491.5,81.5 C 491.833,81.5 492.167,81.5 492.5,81.5C 492.315,82.1701 491.981,82.1701 491.5,81.5 Z"/></g>
<g><path style="opacity:0.004" fill="#000000" d="M 574.5,81.5 C 575.833,82.1667 575.833,82.1667 574.5,81.5 Z"/></g>
<g><path style="opacity:0.004" fill="#000000" d="M 605.5,81.5 C 604.833,82.1667 604.833,82.1667 605.5,81.5 Z"/></g>
<g><path style="opacity:0.004" fill="#000000" d="M 135.5,82.5 C 136.833,83.1667 136.833,83.8333 135.5,84.5C 135.5,83.8333 135.5,83.1667 135.5,82.5 Z"/></g>
<g><path style="opacity:0.008" fill="#000000" d="M 212.5,82.5 C 213.833,83.1667 213.833,83.1667 212.5,82.5 Z"/></g>
<g><path style="opacity:0.004" fill="#000000" d="M 304.5,82.5 C 303.833,83.1667 303.833,83.1667 304.5,82.5 Z"/></g>
<g><path style="opacity:0.008" fill="#000000" d="M 348.5,82.5 C 347.833,83.1667 347.833,83.1667 348.5,82.5 Z"/></g>
<g><path style="opacity:0.004" fill="#000000" d="M 366.5,82.5 C 367.833,83.1667 367.833,83.1667 366.5,82.5 Z"/></g>
<g><path style="opacity:0.004" fill="#000000" d="M 426.5,82.5 C 426.833,82.5 427.167,82.5 427.5,82.5C 427.315,83.1701 426.981,83.1701 426.5,82.5 Z"/></g>
<g><path style="opacity:0.975" fill="#8f6628" d="M 453.5,81.5 C 452.868,84.4919 451.201,85.1586 448.5,83.5C 448.511,84.4415 448.011,85.1081 447,85.5C 442.667,84.1667 438.333,84.1667 434,85.5C 432.989,85.1081 432.489,84.4415 432.5,83.5C 431.232,84.4279 429.899,84.5946 428.5,84C 429.416,83.7216 430.082,83.2216 430.5,82.5C 438.196,82.6464 445.862,82.3131 453.5,81.5 Z"/></g>
<g><path style="opacity:0.005" fill="#100504" d="M 469.5,81.5 C 470.167,81.5 470.5,81.8333 470.5,82.5C 470.842,83.3382 471.508,83.6716 472.5,83.5C 471.292,84.782 469.958,84.782 468.5,83.5C 468.863,82.8165 469.196,82.1499 469.5,81.5 Z"/></g>
<g><path style="opacity:0.004" fill="#000000" d="M 607.5,82.5 C 606.833,83.1667 606.833,83.1667 607.5,82.5 Z"/></g>
<g><path style="opacity:0.014" fill="#000000" d="M 197.5,83.5 C 200.167,83.5 202.833,83.5 205.5,83.5C 205.611,84.1174 205.944,84.6174 206.5,85C 203.167,85.6667 199.833,85.6667 196.5,85C 197.056,84.6174 197.389,84.1174 197.5,83.5 Z"/></g>
<g><path style="opacity:0.004" fill="#000000" d="M 210.5,83.5 C 211.833,84.1667 211.833,84.1667 210.5,83.5 Z"/></g>
<g><path style="opacity:0.004" fill="#000000" d="M 234.5,83.5 C 235.167,83.5 235.833,83.5 236.5,83.5C 235.833,84.8333 235.167,84.8333 234.5,83.5 Z"/></g>
<g><path style="opacity:0.015" fill="#000000" d="M 239.5,83.5 C 241.833,83.5 244.167,83.5 246.5,83.5C 245.666,84.7479 244.333,85.4146 242.5,85.5C 241.167,85.3333 239.833,85.1667 238.5,85C 239.056,84.6174 239.389,84.1174 239.5,83.5 Z"/></g>
<g><path style="opacity:0.004" fill="#000000" d="M 251.5,83.5 C 250.833,84.1667 250.833,84.1667 251.5,83.5 Z"/></g>
<g><path style="opacity:0.015" fill="#000000" d="M 274.5,83.5 C 276.833,83.5 279.167,83.5 281.5,83.5C 281.918,84.2216 282.584,84.7216 283.5,85C 282,85.1667 280.5,85.3333 279,85.5C 277.014,85.4313 275.514,84.7647 274.5,83.5 Z"/></g>
<g><path style="opacity:0.004" fill="#000000" d="M 305.5,83.5 C 306.833,84.1667 306.833,84.1667 305.5,83.5 Z"/></g>
<g><path style="opacity:0.015" fill="#000000" d="M 475.5,83.5 C 477.833,83.5 480.167,83.5 482.5,83.5C 482.611,84.1174 482.944,84.6174 483.5,85C 480.5,85.6667 477.5,85.6667 474.5,85C 475.056,84.6174 475.389,84.1174 475.5,83.5 Z"/></g>
<g><path style="opacity:0.004" fill="#1e1406" d="M 512.5,82.5 C 516.5,82.5 520.5,82.5 524.5,82.5C 524.389,83.1174 524.056,83.6174 523.5,84C 521.667,84.1667 519.833,84.3333 518,84.5C 515.705,84.4535 513.871,83.7868 512.5,82.5 Z"/></g>
<g><path style="opacity:0.016" fill="#000000" d="M 551.5,83.5 C 553.5,83.5 555.5,83.5 557.5,83.5C 557.611,84.1174 557.944,84.6174 558.5,85C 555.833,85.6667 553.167,85.6667 550.5,85C 551.056,84.6174 551.389,84.1174 551.5,83.5 Z"/></g>
<g><path style="opacity:0.004" fill="#000000" d="M 563.5,83.5 C 562.833,84.1667 562.833,84.1667 563.5,83.5 Z"/></g>
<g><path style="opacity:0.016" fill="#000000" d="M 613.5,83.5 C 616.5,83.5 619.5,83.5 622.5,83.5C 622.611,84.1174 622.944,84.6174 623.5,85C 621.833,85.1667 620.167,85.3333 618.5,85.5C 616.36,85.4439 614.694,84.7773 613.5,83.5 Z"/></g>
<g><path style="opacity:0.004" fill="#000000" d="M 628.5,83.5 C 627.833,84.1667 627.833,84.1667 628.5,83.5 Z"/></g>
<g><path style="opacity:0.004" fill="#000000" d="M 162.5,84.5 C 161.833,85.1667 161.833,85.1667 162.5,84.5 Z"/></g>
<g><path style="opacity:0.004" fill="#000000" d="M 438.5,86.5 C 439.601,85.4017 440.934,85.235 442.5,86C 441.207,86.49 439.873,86.6567 438.5,86.5 Z"/></g>
<g><path style="opacity:0.004" fill="#000000" d="M 131.5,91.5 C 131.833,91.5 132.167,91.5 132.5,91.5C 132.315,92.1701 131.981,92.1701 131.5,91.5 Z"/></g>
<g><path style="opacity:0.004" fill="#000000" d="M 129.5,94.5 C 130.833,95.1667 130.833,95.1667 129.5,94.5 Z"/></g>
<g><path style="opacity:0.004" fill="#000000" d="M 33.5,97.5 C 34.8333,98.1667 34.8333,98.1667 33.5,97.5 Z"/></g>
<g><path style="opacity:0.004" fill="#000000" d="M 59.5,97.5 C 60.8333,98.1667 60.8333,98.1667 59.5,97.5 Z"/></g>
<g><path style="opacity:0.004" fill="#000000" d="M 126.5,97.5 C 127.239,97.369 127.906,97.5357 128.5,98C 127.563,98.6917 126.897,98.525 126.5,97.5 Z"/></g>
<g><path style="opacity:0.004" fill="#000000" d="M 67.5,99.5 C 66.8333,100.167 66.8333,100.167 67.5,99.5 Z"/></g>
<g><path style="opacity:0.004" fill="#000000" d="M 124.5,100.5 C 124.5,100.167 124.5,99.8333 124.5,99.5C 127.167,99.8333 127.167,100.167 124.5,100.5 Z"/></g>
<g><path style="opacity:0.004" fill="#000000" d="M 123.5,100.5 C 123.833,100.5 124.167,100.5 124.5,100.5C 124.315,101.17 123.981,101.17 123.5,100.5 Z"/></g>
<g><path style="opacity:0.004" fill="#000000" d="M 69.5,101.5 C 69.8333,101.5 70.1667,101.5 70.5,101.5C 70.3147,102.17 69.9813,102.17 69.5,101.5 Z"/></g>
<g><path style="opacity:0.004" fill="#000000" d="M 121.5,102.5 C 121.5,102.167 121.5,101.833 121.5,101.5C 122.167,101.5 122.833,101.5 123.5,101.5C 123.158,102.338 122.492,102.672 121.5,102.5 Z"/></g>
<g><path style="opacity:0.004" fill="#000000" d="M 120.5,102.5 C 120.833,102.5 121.167,102.5 121.5,102.5C 121.315,103.17 120.981,103.17 120.5,102.5 Z"/></g>
<g><path style="opacity:0.008" fill="#000000" d="M 118.5,103.5 C 119.833,104.167 119.833,104.167 118.5,103.5 Z"/></g>
<g><path style="opacity:0.004" fill="#000000" d="M 38.5,105.5 C 44.3456,104.183 50.3456,104.183 56.5,105.5C 50.7789,105.572 44.7789,105.572 38.5,105.5 Z"/></g>
<g><path style="opacity:0.004" fill="#000000" d="M 76.5,104.5 C 76.1034,105.525 75.4368,105.692 74.5,105C 75.0944,104.536 75.7611,104.369 76.5,104.5 Z"/></g>
<g><path style="opacity:0.004" fill="#000000" d="M 116.5,104.5 C 117.167,104.5 117.833,104.5 118.5,104.5C 117.833,105.833 117.167,105.833 116.5,104.5 Z"/></g>
<g><path style="opacity:0.008" fill="#000000" d="M 78.5,105.5 C 77.8333,106.167 77.8333,106.167 78.5,105.5 Z"/></g>
<g><path style="opacity:0.008" fill="#000000" d="M 114.5,105.5 C 115.833,106.167 115.833,106.167 114.5,105.5 Z"/></g>
<g><path style="opacity:0.663" fill="#447884" d="M 86.5,106.5 C 93.5,106.5 100.5,106.5 107.5,106.5C 108.167,107.167 108.833,107.833 109.5,108.5C 108.167,108.5 106.833,108.5 105.5,108.5C 103.833,107.167 102.167,107.167 100.5,108.5C 98.1667,108.5 95.8333,108.5 93.5,108.5C 91.8333,107.167 90.1667,107.167 88.5,108.5C 87.8333,108.5 87.1667,108.5 86.5,108.5C 86.5,107.833 86.5,107.167 86.5,106.5 Z"/></g>
<g><path style="opacity:0.006" fill="#000000" d="M 83.5,108.5 C 84.1667,107.167 84.8333,107.167 85.5,108.5C 84.8333,108.5 84.1667,108.5 83.5,108.5 Z"/></g>
</svg>
